<svg width="1408" height="768" viewBox="0 0 1408 768" xmlns="http://www.w3.org/2000/svg">
<defs>
    <radialGradient id="ocean" cx="48%" cy="42%" r="85%">
      <stop offset="0%" stop-color="#141024"/>
      <stop offset="45%" stop-color="#0b0817"/>
      <stop offset="100%" stop-color="#020104"/>
    </radialGradient>
    <linearGradient id="land" x1="0" y1="0" x2="0.35" y2="1">
      <stop offset="0%" stop-color="#4a4066"/>
      <stop offset="45%" stop-color="#332c4a"/>
      <stop offset="100%" stop-color="#1c1730"/>
    </linearGradient>
    <linearGradient id="riftLand" x1="0" y1="0" x2="0.35" y2="1">
      <stop offset="0%" stop-color="#4a2a5c"/>
      <stop offset="100%" stop-color="#1e0f2c"/>
    </linearGradient>
    <radialGradient id="shelfGrad" cx="50%" cy="50%" r="50%">
      <stop offset="55%" stop-color="rgba(100,150,220,0.0)"/>
      <stop offset="100%" stop-color="rgba(100,150,220,0.38)"/>
    </radialGradient>
    <linearGradient id="shoreGrad" x1="0" y1="0" x2="0" y2="1">
      <stop offset="0%" stop-color="rgba(224,208,160,0.55)"/>
      <stop offset="100%" stop-color="rgba(170,152,112,0.3)"/>
    </linearGradient>
    <radialGradient id="landGlow" cx="50%" cy="35%" r="70%">
      <stop offset="0%" stop-color="rgba(167,139,250,0.20)"/>
      <stop offset="100%" stop-color="rgba(167,139,250,0)"/>
    </radialGradient>
    <filter id="softGlow" x="-50%" y="-50%" width="200%" height="200%">
      <feGaussianBlur stdDeviation="5" result="b"/>
      <feMerge><feMergeNode in="b"/><feMergeNode in="SourceGraphic"/></feMerge>
    </filter>
    <filter id="landShadow" x="-20%" y="-20%" width="140%" height="140%">
      <feGaussianBlur stdDeviation="9" result="b"/>
    </filter>
    <pattern id="starfield" width="180" height="180" patternUnits="userSpaceOnUse">
      <circle cx="18" cy="24" r="1" fill="rgba(255,255,255,0.5)"/>
      <circle cx="80" cy="90" r="0.7" fill="rgba(255,255,255,0.3)"/>
      <circle cx="140" cy="20" r="0.9" fill="rgba(167,139,250,0.45)"/>
      <circle cx="110" cy="140" r="0.8" fill="rgba(255,255,255,0.35)"/>
      <circle cx="40" cy="125" r="0.6" fill="rgba(255,255,255,0.25)"/>
      <circle cx="165" cy="65" r="0.7" fill="rgba(167,139,250,0.35)"/>
      <circle cx="60" cy="60" r="0.5" fill="rgba(255,255,255,0.2)"/>
      <circle cx="150" cy="150" r="0.6" fill="rgba(255,255,255,0.28)"/>
    </pattern>
    <radialGradient id="vignette" cx="50%" cy="50%" r="75%">
      <stop offset="55%" stop-color="rgba(0,0,0,0)"/>
      <stop offset="100%" stop-color="rgba(0,0,0,0.6)"/>
    </radialGradient>
  </defs>
<rect x="0" y="0" width="1408" height="768" fill="url(#ocean)"/>
<rect x="0" y="0" width="1408" height="768" fill="url(#starfield)"/>
<ellipse cx="460.0" cy="280.0" rx="262.5" ry="189.0" fill="url(#landGlow)"/>
<ellipse cx="1030.0" cy="470.0" rx="231.2" ry="166.5" fill="url(#landGlow)"/>
<ellipse cx="390.0" cy="610.0" rx="218.8" ry="157.5" fill="url(#landGlow)"/>
<ellipse cx="1200.0" cy="150.0" rx="181.2" ry="130.5" fill="url(#landGlow)"/>
<path d="M 724.5 280.0 C 725.8 284.5, 733.5 297.6, 735.2 302.3 C 736.9 307.1, 738.8 320.8, 741.0 326.2 C 743.2 331.6, 754.7 348.8, 756.2 354.6 C 757.7 360.4, 755.7 376.5, 755.3 382.4 C 754.8 388.3, 755.7 407.3, 751.6 411.9 C 747.6 416.6, 724.8 425.3, 716.0 427.0 C 707.2 428.7, 674.5 427.1, 666.6 428.8 C 658.8 430.4, 646.8 441.2, 640.3 442.8 C 633.8 444.4, 611.0 444.5, 603.7 444.6 C 596.4 444.8, 576.1 443.8, 569.6 443.9 C 563.2 444.1, 546.9 446.5, 540.9 446.4 C 534.9 446.3, 517.5 443.8, 511.7 443.0 C 505.9 442.2, 490.1 439.2, 484.8 438.4 C 479.5 437.7, 465.0 436.4, 460.0 435.5 C 455.0 434.6, 441.5 430.3, 436.6 429.7 C 431.7 429.2, 417.6 429.9, 412.5 430.0 C 407.3 430.0, 392.2 430.6, 386.9 430.5 C 381.5 430.3, 366.5 428.8, 360.6 428.6 C 354.7 428.5, 336.2 429.5, 330.0 428.9 C 323.9 428.4, 307.7 424.4, 301.2 423.4 C 294.7 422.4, 273.9 420.4, 266.8 419.1 C 259.8 417.7, 241.2 411.9, 233.1 410.3 C 224.9 408.6, 197.3 405.2, 187.9 403.1 C 178.5 401.0, 151.6 393.5, 142.2 390.2 C 132.8 386.9, 104.1 376.2, 97.3 371.4 C 90.5 366.5, 78.1 349.3, 76.3 343.0 C 74.6 336.8, 78.8 317.3, 80.5 310.8 C 82.2 304.3, 86.9 285.9, 92.7 280.0 C 98.5 274.1, 126.5 258.4, 136.3 253.7 C 146.1 249.1, 177.5 238.4, 187.6 235.2 C 197.8 232.1, 225.4 225.2, 234.6 223.2 C 243.8 221.3, 269.1 217.7, 276.7 216.5 C 284.4 215.2, 303.0 212.6, 308.5 211.5 C 314.1 210.4, 326.8 207.2, 330.4 205.6 C 334.0 204.0, 341.8 199.0, 343.5 196.1 C 345.3 193.3, 345.9 181.8, 347.2 178.1 C 348.5 174.5, 354.4 165.4, 356.0 160.9 C 357.6 156.3, 360.0 138.9, 362.6 134.3 C 365.1 129.7, 376.3 120.2, 380.3 116.0 C 384.3 111.8, 395.9 96.8, 401.0 93.8 C 406.1 90.8, 423.7 86.8, 429.8 86.9 C 435.9 87.1, 453.9 94.5, 460.0 95.2 C 466.1 95.9, 482.3 96.3, 489.1 94.0 C 495.9 91.7, 517.8 75.9, 525.7 72.8 C 533.5 69.8, 555.7 66.6, 564.9 64.2 C 574.0 61.8, 604.9 50.2, 614.1 49.6 C 623.4 48.9, 646.5 55.0, 654.1 57.6 C 661.6 60.3, 680.5 71.2, 686.9 75.1 C 693.4 79.0, 712.2 90.1, 716.6 95.3 C 720.9 100.5, 728.0 118.9, 729.0 125.6 C 729.9 132.2, 726.4 153.2, 725.7 159.8 C 725.0 166.3, 722.9 183.4, 722.5 189.0 C 722.2 194.6, 722.1 209.0, 722.4 213.9 C 722.7 218.8, 725.5 231.7, 725.6 236.4 C 725.6 241.0, 722.9 254.2, 722.8 258.7 C 722.7 263.2, 723.2 275.5, 724.5 280.0 Z" fill="url(#shelfGrad)" opacity="0.55"/><path d="M 702.5 280.0 C 703.8 284.1, 711.5 296.1, 713.3 300.5 C 715.0 304.9, 717.1 317.6, 719.3 322.6 C 721.5 327.6, 733.3 343.8, 734.9 349.2 C 736.4 354.7, 734.8 369.6, 734.5 375.2 C 734.2 380.7, 735.5 398.7, 731.6 402.9 C 727.7 407.1, 705.5 414.7, 696.9 416.0 C 688.4 417.4, 656.3 414.7, 648.8 415.9 C 641.2 417.2, 630.1 426.8, 624.0 428.1 C 617.8 429.3, 596.1 428.3, 589.2 428.1 C 582.3 427.8, 563.4 425.8, 557.4 425.6 C 551.4 425.5, 536.7 427.0, 531.3 426.6 C 525.8 426.2, 510.2 423.0, 505.0 422.0 C 499.9 421.0, 486.0 417.6, 481.4 416.7 C 476.7 415.8, 464.3 414.4, 460.0 413.5 C 455.7 412.6, 444.2 408.4, 440.0 408.0 C 435.7 407.5, 423.6 408.7, 419.1 409.0 C 414.6 409.3, 401.3 410.5, 396.5 410.7 C 391.7 410.8, 378.2 410.2, 372.8 410.3 C 367.4 410.5, 350.2 412.5, 344.5 412.3 C 338.8 412.2, 323.7 409.3, 317.5 408.6 C 311.3 408.0, 291.4 407.2, 284.7 406.2 C 277.9 405.3, 260.1 400.6, 252.2 399.3 C 244.2 398.1, 217.2 395.7, 208.0 394.0 C 198.7 392.3, 172.2 385.9, 163.0 383.0 C 153.7 380.1, 125.3 370.5, 118.6 366.0 C 111.9 361.5, 99.7 345.4, 98.1 339.5 C 96.4 333.6, 100.7 315.2, 102.4 309.0 C 104.2 302.9, 108.9 285.5, 114.7 280.0 C 120.5 274.5, 148.5 259.8, 158.2 255.5 C 168.0 251.3, 199.2 241.6, 209.3 238.8 C 219.4 236.0, 246.9 230.2, 256.0 228.6 C 265.1 227.0, 290.0 224.5, 297.5 223.7 C 305.0 222.8, 323.2 221.3, 328.6 220.5 C 334.0 219.8, 346.1 217.7, 349.5 216.5 C 352.9 215.3, 359.9 211.5, 361.4 209.0 C 362.8 206.6, 362.6 196.1, 363.5 192.9 C 364.4 189.6, 369.3 181.6, 370.5 177.4 C 371.7 173.3, 372.8 156.9, 374.8 152.6 C 376.8 148.3, 386.5 139.7, 389.9 135.8 C 393.3 131.9, 403.1 117.5, 407.6 114.7 C 412.1 111.9, 427.8 108.4, 433.2 108.6 C 438.6 108.9, 454.6 116.5, 460.0 117.2 C 465.4 117.9, 479.6 118.1, 485.7 115.7 C 491.8 113.3, 511.8 97.1, 519.0 93.8 C 526.2 90.5, 546.7 86.7, 555.3 84.0 C 563.8 81.3, 593.2 68.8, 601.9 67.8 C 610.6 66.8, 632.5 71.9, 639.6 74.2 C 646.7 76.5, 664.5 86.4, 670.6 89.9 C 676.7 93.4, 694.6 103.3, 698.7 108.1 C 702.8 113.0, 709.2 130.3, 709.9 136.5 C 710.6 142.8, 706.5 162.7, 705.7 168.9 C 704.8 175.0, 702.2 191.0, 701.7 196.2 C 701.3 201.4, 700.9 214.7, 701.1 219.3 C 701.3 223.8, 703.9 235.7, 703.8 239.9 C 703.8 244.2, 701.0 256.3, 700.9 260.5 C 700.7 264.6, 701.2 275.9, 702.5 280.0 Z" fill="rgba(0,0,0,0.45)" filter="url(#landShadow)" transform="translate(5,10)"/><path d="M 710.5 280.0 C 711.8 284.3, 719.5 296.7, 721.2 301.2 C 723.0 305.7, 725.0 318.7, 727.2 323.9 C 729.4 329.1, 741.1 345.6, 742.6 351.2 C 744.2 356.8, 742.4 372.1, 742.0 377.8 C 741.7 383.5, 742.8 401.8, 738.9 406.2 C 734.9 410.5, 712.5 418.5, 703.9 420.0 C 695.2 421.5, 662.9 419.2, 655.3 420.6 C 647.6 422.0, 636.2 432.0, 629.9 433.4 C 623.6 434.8, 601.5 434.2, 594.5 434.1 C 587.4 434.0, 568.0 432.3, 561.9 432.3 C 555.7 432.3, 540.4 434.1, 534.7 433.8 C 529.1 433.5, 512.8 430.6, 507.4 429.6 C 502.1 428.7, 487.5 425.4, 482.6 424.6 C 477.7 423.8, 464.5 422.4, 460.0 421.5 C 455.5 420.6, 443.2 416.4, 438.7 415.9 C 434.3 415.4, 421.4 416.4, 416.7 416.6 C 412.0 416.8, 398.0 417.8, 393.0 417.9 C 388.0 417.9, 373.9 416.9, 368.4 417.0 C 362.8 417.0, 345.1 418.7, 339.3 418.4 C 333.4 418.1, 317.9 414.8, 311.6 414.0 C 305.3 413.2, 285.1 412.0, 278.2 410.9 C 271.3 409.8, 253.2 404.7, 245.2 403.3 C 237.2 401.9, 210.0 399.2, 200.7 397.3 C 191.4 395.5, 164.7 388.6, 155.4 385.6 C 146.1 382.6, 117.6 372.6, 110.9 368.0 C 104.1 363.3, 91.9 346.8, 90.2 340.8 C 88.5 334.8, 92.8 315.9, 94.5 309.7 C 96.2 303.4, 100.9 285.7, 106.7 280.0 C 112.5 274.3, 140.5 259.3, 150.3 254.9 C 160.1 250.5, 191.3 240.4, 201.4 237.5 C 211.6 234.6, 239.1 228.3, 248.2 226.6 C 257.4 224.9, 282.4 222.0, 290.0 221.0 C 297.5 220.1, 315.9 218.1, 321.3 217.2 C 326.7 216.4, 339.1 213.9, 342.5 212.6 C 346.0 211.2, 353.4 206.9, 354.9 204.3 C 356.5 201.7, 356.5 190.9, 357.6 187.5 C 358.6 184.1, 363.9 175.7, 365.2 171.4 C 366.5 167.1, 368.2 150.4, 370.3 146.0 C 372.5 141.5, 382.8 132.6, 386.4 128.6 C 390.0 124.6, 400.5 110.0, 405.2 107.1 C 409.9 104.2, 426.3 100.5, 431.9 100.7 C 437.6 101.0, 454.3 108.5, 460.0 109.2 C 465.7 109.9, 480.6 110.2, 486.9 107.8 C 493.3 105.4, 514.0 89.4, 521.4 86.2 C 528.9 83.0, 550.0 79.4, 558.8 76.8 C 567.5 74.2, 597.5 62.1, 606.4 61.2 C 615.3 60.3, 637.6 65.8, 644.9 68.2 C 652.1 70.6, 670.3 80.9, 676.5 84.5 C 682.8 88.2, 701.0 98.5, 705.2 103.5 C 709.4 108.4, 716.0 126.1, 716.8 132.5 C 717.6 139.0, 713.7 159.3, 713.0 165.6 C 712.2 171.9, 709.7 188.2, 709.3 193.6 C 708.9 198.9, 708.6 212.6, 708.9 217.3 C 709.1 222.0, 711.7 234.2, 711.7 238.6 C 711.7 243.0, 709.0 255.5, 708.9 259.8 C 708.7 264.1, 709.2 275.7, 710.5 280.0 Z" fill="url(#shoreGrad)"/><path d="M 702.5 280.0 C 703.8 284.1, 711.5 296.1, 713.3 300.5 C 715.0 304.9, 717.1 317.6, 719.3 322.6 C 721.5 327.6, 733.3 343.8, 734.9 349.2 C 736.4 354.7, 734.8 369.6, 734.5 375.2 C 734.2 380.7, 735.5 398.7, 731.6 402.9 C 727.7 407.1, 705.5 414.7, 696.9 416.0 C 688.4 417.4, 656.3 414.7, 648.8 415.9 C 641.2 417.2, 630.1 426.8, 624.0 428.1 C 617.8 429.3, 596.1 428.3, 589.2 428.1 C 582.3 427.8, 563.4 425.8, 557.4 425.6 C 551.4 425.5, 536.7 427.0, 531.3 426.6 C 525.8 426.2, 510.2 423.0, 505.0 422.0 C 499.9 421.0, 486.0 417.6, 481.4 416.7 C 476.7 415.8, 464.3 414.4, 460.0 413.5 C 455.7 412.6, 444.2 408.4, 440.0 408.0 C 435.7 407.5, 423.6 408.7, 419.1 409.0 C 414.6 409.3, 401.3 410.5, 396.5 410.7 C 391.7 410.8, 378.2 410.2, 372.8 410.3 C 367.4 410.5, 350.2 412.5, 344.5 412.3 C 338.8 412.2, 323.7 409.3, 317.5 408.6 C 311.3 408.0, 291.4 407.2, 284.7 406.2 C 277.9 405.3, 260.1 400.6, 252.2 399.3 C 244.2 398.1, 217.2 395.7, 208.0 394.0 C 198.7 392.3, 172.2 385.9, 163.0 383.0 C 153.7 380.1, 125.3 370.5, 118.6 366.0 C 111.9 361.5, 99.7 345.4, 98.1 339.5 C 96.4 333.6, 100.7 315.2, 102.4 309.0 C 104.2 302.9, 108.9 285.5, 114.7 280.0 C 120.5 274.5, 148.5 259.8, 158.2 255.5 C 168.0 251.3, 199.2 241.6, 209.3 238.8 C 219.4 236.0, 246.9 230.2, 256.0 228.6 C 265.1 227.0, 290.0 224.5, 297.5 223.7 C 305.0 222.8, 323.2 221.3, 328.6 220.5 C 334.0 219.8, 346.1 217.7, 349.5 216.5 C 352.9 215.3, 359.9 211.5, 361.4 209.0 C 362.8 206.6, 362.6 196.1, 363.5 192.9 C 364.4 189.6, 369.3 181.6, 370.5 177.4 C 371.7 173.3, 372.8 156.9, 374.8 152.6 C 376.8 148.3, 386.5 139.7, 389.9 135.8 C 393.3 131.9, 403.1 117.5, 407.6 114.7 C 412.1 111.9, 427.8 108.4, 433.2 108.6 C 438.6 108.9, 454.6 116.5, 460.0 117.2 C 465.4 117.9, 479.6 118.1, 485.7 115.7 C 491.8 113.3, 511.8 97.1, 519.0 93.8 C 526.2 90.5, 546.7 86.7, 555.3 84.0 C 563.8 81.3, 593.2 68.8, 601.9 67.8 C 610.6 66.8, 632.5 71.9, 639.6 74.2 C 646.7 76.5, 664.5 86.4, 670.6 89.9 C 676.7 93.4, 694.6 103.3, 698.7 108.1 C 702.8 113.0, 709.2 130.3, 709.9 136.5 C 710.6 142.8, 706.5 162.7, 705.7 168.9 C 704.8 175.0, 702.2 191.0, 701.7 196.2 C 701.3 201.4, 700.9 214.7, 701.1 219.3 C 701.3 223.8, 703.9 235.7, 703.8 239.9 C 703.8 244.2, 701.0 256.3, 700.9 260.5 C 700.7 264.6, 701.2 275.9, 702.5 280.0 Z" fill="url(#land)" stroke="rgba(167,139,250,0.45)" stroke-width="2"/><path d="M 702.5 280.0 C 703.8 284.1, 711.5 296.1, 713.3 300.5 C 715.0 304.9, 717.1 317.6, 719.3 322.6 C 721.5 327.6, 733.3 343.8, 734.9 349.2 C 736.4 354.7, 734.8 369.6, 734.5 375.2 C 734.2 380.7, 735.5 398.7, 731.6 402.9 C 727.7 407.1, 705.5 414.7, 696.9 416.0 C 688.4 417.4, 656.3 414.7, 648.8 415.9 C 641.2 417.2, 630.1 426.8, 624.0 428.1 C 617.8 429.3, 596.1 428.3, 589.2 428.1 C 582.3 427.8, 563.4 425.8, 557.4 425.6 C 551.4 425.5, 536.7 427.0, 531.3 426.6 C 525.8 426.2, 510.2 423.0, 505.0 422.0 C 499.9 421.0, 486.0 417.6, 481.4 416.7 C 476.7 415.8, 464.3 414.4, 460.0 413.5 C 455.7 412.6, 444.2 408.4, 440.0 408.0 C 435.7 407.5, 423.6 408.7, 419.1 409.0 C 414.6 409.3, 401.3 410.5, 396.5 410.7 C 391.7 410.8, 378.2 410.2, 372.8 410.3 C 367.4 410.5, 350.2 412.5, 344.5 412.3 C 338.8 412.2, 323.7 409.3, 317.5 408.6 C 311.3 408.0, 291.4 407.2, 284.7 406.2 C 277.9 405.3, 260.1 400.6, 252.2 399.3 C 244.2 398.1, 217.2 395.7, 208.0 394.0 C 198.7 392.3, 172.2 385.9, 163.0 383.0 C 153.7 380.1, 125.3 370.5, 118.6 366.0 C 111.9 361.5, 99.7 345.4, 98.1 339.5 C 96.4 333.6, 100.7 315.2, 102.4 309.0 C 104.2 302.9, 108.9 285.5, 114.7 280.0 C 120.5 274.5, 148.5 259.8, 158.2 255.5 C 168.0 251.3, 199.2 241.6, 209.3 238.8 C 219.4 236.0, 246.9 230.2, 256.0 228.6 C 265.1 227.0, 290.0 224.5, 297.5 223.7 C 305.0 222.8, 323.2 221.3, 328.6 220.5 C 334.0 219.8, 346.1 217.7, 349.5 216.5 C 352.9 215.3, 359.9 211.5, 361.4 209.0 C 362.8 206.6, 362.6 196.1, 363.5 192.9 C 364.4 189.6, 369.3 181.6, 370.5 177.4 C 371.7 173.3, 372.8 156.9, 374.8 152.6 C 376.8 148.3, 386.5 139.7, 389.9 135.8 C 393.3 131.9, 403.1 117.5, 407.6 114.7 C 412.1 111.9, 427.8 108.4, 433.2 108.6 C 438.6 108.9, 454.6 116.5, 460.0 117.2 C 465.4 117.9, 479.6 118.1, 485.7 115.7 C 491.8 113.3, 511.8 97.1, 519.0 93.8 C 526.2 90.5, 546.7 86.7, 555.3 84.0 C 563.8 81.3, 593.2 68.8, 601.9 67.8 C 610.6 66.8, 632.5 71.9, 639.6 74.2 C 646.7 76.5, 664.5 86.4, 670.6 89.9 C 676.7 93.4, 694.6 103.3, 698.7 108.1 C 702.8 113.0, 709.2 130.3, 709.9 136.5 C 710.6 142.8, 706.5 162.7, 705.7 168.9 C 704.8 175.0, 702.2 191.0, 701.7 196.2 C 701.3 201.4, 700.9 214.7, 701.1 219.3 C 701.3 223.8, 703.9 235.7, 703.8 239.9 C 703.8 244.2, 701.0 256.3, 700.9 260.5 C 700.7 264.6, 701.2 275.9, 702.5 280.0 Z" fill="none" stroke="rgba(255,255,255,0.06)" stroke-width="5"/><path d="M 702.5 280.0 C 703.8 284.1, 711.5 296.1, 713.3 300.5 C 715.0 304.9, 717.1 317.6, 719.3 322.6 C 721.5 327.6, 733.3 343.8, 734.9 349.2 C 736.4 354.7, 734.8 369.6, 734.5 375.2 C 734.2 380.7, 735.5 398.7, 731.6 402.9 C 727.7 407.1, 705.5 414.7, 696.9 416.0 C 688.4 417.4, 656.3 414.7, 648.8 415.9 C 641.2 417.2, 630.1 426.8, 624.0 428.1 C 617.8 429.3, 596.1 428.3, 589.2 428.1 C 582.3 427.8, 563.4 425.8, 557.4 425.6 C 551.4 425.5, 536.7 427.0, 531.3 426.6 C 525.8 426.2, 510.2 423.0, 505.0 422.0 C 499.9 421.0, 486.0 417.6, 481.4 416.7 C 476.7 415.8, 464.3 414.4, 460.0 413.5 C 455.7 412.6, 444.2 408.4, 440.0 408.0 C 435.7 407.5, 423.6 408.7, 419.1 409.0 C 414.6 409.3, 401.3 410.5, 396.5 410.7 C 391.7 410.8, 378.2 410.2, 372.8 410.3 C 367.4 410.5, 350.2 412.5, 344.5 412.3 C 338.8 412.2, 323.7 409.3, 317.5 408.6 C 311.3 408.0, 291.4 407.2, 284.7 406.2 C 277.9 405.3, 260.1 400.6, 252.2 399.3 C 244.2 398.1, 217.2 395.7, 208.0 394.0 C 198.7 392.3, 172.2 385.9, 163.0 383.0 C 153.7 380.1, 125.3 370.5, 118.6 366.0 C 111.9 361.5, 99.7 345.4, 98.1 339.5 C 96.4 333.6, 100.7 315.2, 102.4 309.0 C 104.2 302.9, 108.9 285.5, 114.7 280.0 C 120.5 274.5, 148.5 259.8, 158.2 255.5 C 168.0 251.3, 199.2 241.6, 209.3 238.8 C 219.4 236.0, 246.9 230.2, 256.0 228.6 C 265.1 227.0, 290.0 224.5, 297.5 223.7 C 305.0 222.8, 323.2 221.3, 328.6 220.5 C 334.0 219.8, 346.1 217.7, 349.5 216.5 C 352.9 215.3, 359.9 211.5, 361.4 209.0 C 362.8 206.6, 362.6 196.1, 363.5 192.9 C 364.4 189.6, 369.3 181.6, 370.5 177.4 C 371.7 173.3, 372.8 156.9, 374.8 152.6 C 376.8 148.3, 386.5 139.7, 389.9 135.8 C 393.3 131.9, 403.1 117.5, 407.6 114.7 C 412.1 111.9, 427.8 108.4, 433.2 108.6 C 438.6 108.9, 454.6 116.5, 460.0 117.2 C 465.4 117.9, 479.6 118.1, 485.7 115.7 C 491.8 113.3, 511.8 97.1, 519.0 93.8 C 526.2 90.5, 546.7 86.7, 555.3 84.0 C 563.8 81.3, 593.2 68.8, 601.9 67.8 C 610.6 66.8, 632.5 71.9, 639.6 74.2 C 646.7 76.5, 664.5 86.4, 670.6 89.9 C 676.7 93.4, 694.6 103.3, 698.7 108.1 C 702.8 113.0, 709.2 130.3, 709.9 136.5 C 710.6 142.8, 706.5 162.7, 705.7 168.9 C 704.8 175.0, 702.2 191.0, 701.7 196.2 C 701.3 201.4, 700.9 214.7, 701.1 219.3 C 701.3 223.8, 703.9 235.7, 703.8 239.9 C 703.8 244.2, 701.0 256.3, 700.9 260.5 C 700.7 264.6, 701.2 275.9, 702.5 280.0 Z" fill="none" stroke="rgba(167,139,250,0.16)" stroke-width="9" filter="url(#softGlow)"/>
<path d="M 1363.9 470.0 C 1367.4 475.4, 1367.1 491.7, 1366.7 497.3 C 1366.3 502.9, 1363.0 519.1, 1360.0 524.2 C 1356.9 529.4, 1341.0 542.5, 1337.1 547.4 C 1333.2 552.2, 1324.5 566.0, 1322.1 571.3 C 1319.8 576.6, 1317.9 593.8, 1314.5 598.7 C 1311.1 603.6, 1295.4 615.4, 1289.4 619.0 C 1283.5 622.6, 1264.9 631.7, 1257.3 633.6 C 1249.6 635.5, 1224.9 638.2, 1215.4 637.4 C 1206.0 636.6, 1175.4 628.6, 1165.8 625.6 C 1156.2 622.7, 1130.4 611.7, 1122.8 608.8 C 1115.2 605.9, 1098.0 600.4, 1092.2 598.0 C 1086.4 595.5, 1071.1 586.9, 1066.4 584.8 C 1061.7 582.6, 1050.5 577.2, 1046.7 577.0 C 1043.0 576.8, 1033.8 580.8, 1030.0 582.9 C 1026.2 584.9, 1014.7 594.4, 1010.1 597.0 C 1005.6 599.6, 992.0 605.2, 986.2 608.3 C 980.3 611.4, 960.4 624.5, 953.7 626.9 C 947.1 629.3, 928.4 631.4, 921.8 631.8 C 915.2 632.1, 895.6 632.0, 890.0 630.5 C 884.3 629.0, 870.6 620.7, 867.1 617.1 C 863.7 613.4, 858.6 599.2, 856.5 594.9 C 854.4 590.6, 850.4 578.3, 847.0 575.1 C 843.7 571.8, 829.4 565.6, 824.0 563.2 C 818.6 560.7, 799.8 554.5, 794.8 551.5 C 789.9 548.5, 778.3 538.1, 775.9 534.0 C 773.5 530.0, 771.3 517.0, 771.6 512.5 C 772.0 507.9, 775.9 494.7, 779.4 490.3 C 782.9 485.9, 800.4 473.8, 805.2 470.0 C 810.1 466.2, 822.4 456.7, 826.1 453.5 C 829.7 450.2, 838.3 441.9, 840.3 438.8 C 842.3 435.7, 844.4 426.7, 845.8 423.6 C 847.3 420.5, 853.5 412.5, 854.6 409.2 C 855.6 405.8, 855.9 395.4, 855.9 391.2 C 855.9 387.1, 854.6 374.1, 854.4 369.2 C 854.2 364.2, 853.6 348.9, 853.8 343.2 C 854.1 337.5, 855.3 319.6, 857.1 313.9 C 858.9 308.2, 867.1 292.5, 871.4 288.3 C 875.7 284.1, 891.7 274.3, 898.4 273.2 C 905.1 272.1, 928.9 276.4, 936.4 277.3 C 943.8 278.3, 963.9 281.5, 970.6 282.7 C 977.4 283.9, 995.5 288.1, 1001.7 289.0 C 1007.8 290.0, 1024.1 292.0, 1030.0 291.6 C 1035.9 291.2, 1053.1 285.0, 1058.9 285.1 C 1064.8 285.1, 1081.4 289.5, 1086.4 292.2 C 1091.4 294.8, 1103.9 306.3, 1107.4 310.8 C 1110.8 315.4, 1117.4 331.2, 1119.6 336.0 C 1121.8 340.8, 1127.3 352.8, 1128.4 357.3 C 1129.4 361.8, 1129.2 376.0, 1129.8 379.9 C 1130.4 383.8, 1132.4 392.7, 1133.9 395.2 C 1135.4 397.7, 1140.3 403.3, 1144.3 404.4 C 1148.3 405.5, 1165.5 405.3, 1172.2 405.7 C 1178.9 406.0, 1201.4 406.9, 1209.4 407.8 C 1217.4 408.7, 1239.9 412.9, 1249.4 414.7 C 1258.8 416.6, 1292.2 422.3, 1300.8 425.5 C 1309.5 428.7, 1326.5 440.8, 1333.1 445.4 C 1339.6 450.0, 1360.4 464.6, 1363.9 470.0 Z" fill="url(#shelfGrad)" opacity="0.55"/><path d="M 1341.9 470.0 C 1345.4 475.0, 1345.2 490.3, 1344.8 495.5 C 1344.4 500.8, 1341.3 515.9, 1338.3 520.7 C 1335.3 525.5, 1319.6 537.5, 1315.8 542.0 C 1312.0 546.5, 1303.6 559.2, 1301.4 564.1 C 1299.2 569.0, 1297.7 585.1, 1294.5 589.6 C 1291.3 594.2, 1276.1 604.8, 1270.4 608.0 C 1264.7 611.2, 1246.8 619.3, 1239.4 620.8 C 1232.1 622.3, 1208.2 623.9, 1199.1 622.7 C 1190.0 621.5, 1160.5 612.4, 1151.3 609.1 C 1142.2 605.7, 1117.7 593.7, 1110.6 590.5 C 1103.5 587.3, 1087.8 580.9, 1082.6 578.2 C 1077.3 575.4, 1063.8 566.2, 1059.7 563.8 C 1055.7 561.4, 1046.4 555.6, 1043.3 555.3 C 1040.3 555.0, 1033.1 558.8, 1030.0 560.9 C 1026.9 562.9, 1017.4 572.5, 1013.5 575.3 C 1009.7 578.0, 998.0 584.0, 992.8 587.3 C 987.6 590.6, 969.4 604.4, 963.4 607.1 C 957.3 609.8, 940.1 612.8, 934.0 613.5 C 928.0 614.2, 909.6 615.1, 904.4 613.9 C 899.2 612.8, 886.5 605.6, 883.4 602.3 C 880.3 599.0, 876.2 586.0, 874.4 582.1 C 872.6 578.1, 869.2 567.0, 866.1 564.1 C 863.0 561.2, 849.3 556.2, 844.1 554.1 C 838.9 552.1, 820.5 547.0, 815.6 544.3 C 810.8 541.7, 799.5 532.3, 797.2 528.7 C 794.9 525.0, 792.9 513.0, 793.4 508.9 C 793.8 504.7, 797.8 492.6, 801.3 488.5 C 804.8 484.5, 822.4 473.4, 827.2 470.0 C 832.1 466.6, 844.4 458.1, 848.0 455.2 C 851.6 452.4, 860.0 445.1, 862.0 442.4 C 864.0 439.7, 865.8 431.7, 867.2 429.0 C 868.5 426.3, 874.4 419.3, 875.4 416.4 C 876.3 413.4, 876.2 404.1, 876.0 400.3 C 875.8 396.6, 873.9 384.7, 873.4 380.1 C 873.0 375.5, 871.7 361.3, 871.7 356.0 C 871.7 350.7, 872.0 333.9, 873.4 328.6 C 874.9 323.4, 882.0 308.7, 885.9 304.8 C 889.7 301.0, 904.4 292.3, 910.6 291.5 C 916.8 290.7, 939.1 295.9, 946.0 297.1 C 952.9 298.4, 971.2 302.2, 977.3 303.6 C 983.4 305.0, 999.6 309.8, 1005.1 310.8 C 1010.5 311.8, 1024.8 314.0, 1030.0 313.6 C 1035.2 313.2, 1050.4 306.8, 1055.5 306.8 C 1060.7 306.8, 1075.4 310.7, 1079.7 313.1 C 1084.1 315.6, 1094.9 326.3, 1097.7 330.6 C 1100.6 334.9, 1105.7 349.9, 1107.4 354.3 C 1109.0 358.8, 1113.3 369.7, 1113.9 373.9 C 1114.5 378.0, 1113.2 391.1, 1113.5 394.6 C 1113.7 398.2, 1114.8 405.9, 1116.1 408.0 C 1117.3 410.2, 1121.5 414.6, 1125.2 415.3 C 1129.0 416.0, 1145.6 414.8, 1152.1 414.7 C 1158.7 414.7, 1180.8 414.4, 1188.6 415.0 C 1196.5 415.6, 1218.7 418.6, 1228.1 420.1 C 1237.4 421.6, 1270.5 426.3, 1279.1 429.1 C 1287.7 431.9, 1304.6 443.0, 1311.1 447.2 C 1317.6 451.4, 1338.4 465.0, 1341.9 470.0 Z" fill="rgba(0,0,0,0.45)" filter="url(#landShadow)" transform="translate(5,10)"/><path d="M 1349.9 470.0 C 1353.4 475.1, 1353.2 490.8, 1352.8 496.2 C 1352.4 501.6, 1349.2 517.0, 1346.2 522.0 C 1343.1 526.9, 1327.4 539.3, 1323.5 544.0 C 1319.7 548.6, 1311.2 561.6, 1308.9 566.7 C 1306.7 571.8, 1305.0 588.3, 1301.8 592.9 C 1298.5 597.6, 1283.1 608.6, 1277.3 612.0 C 1271.5 615.4, 1253.4 623.8, 1245.9 625.5 C 1238.5 627.1, 1214.3 629.1, 1205.0 628.0 C 1195.8 627.0, 1165.9 618.3, 1156.6 615.1 C 1147.3 611.9, 1122.3 600.2, 1115.1 597.2 C 1107.8 594.1, 1091.5 588.0, 1086.1 585.4 C 1080.6 582.7, 1066.4 573.7, 1062.1 571.4 C 1057.9 569.1, 1047.9 563.4, 1044.6 563.2 C 1041.3 562.9, 1033.3 566.8, 1030.0 568.9 C 1026.7 570.9, 1016.4 580.5, 1012.3 583.2 C 1008.2 585.9, 995.8 591.7, 990.4 595.0 C 985.0 598.2, 966.1 611.7, 959.9 614.3 C 953.6 616.9, 935.9 619.5, 929.6 620.1 C 923.3 620.7, 904.5 621.2, 899.2 619.9 C 893.8 618.6, 880.7 611.1, 877.5 607.7 C 874.3 604.3, 869.8 590.8, 867.9 586.7 C 866.0 582.6, 862.4 571.1, 859.2 568.1 C 855.9 565.1, 842.1 559.6, 836.8 557.4 C 831.5 555.2, 813.0 549.7, 808.1 547.0 C 803.2 544.2, 791.8 534.4, 789.4 530.6 C 787.1 526.8, 785.1 514.5, 785.5 510.2 C 785.9 505.9, 789.9 493.3, 793.4 489.2 C 796.9 485.0, 814.4 473.6, 819.2 470.0 C 824.1 466.4, 836.4 457.6, 840.0 454.6 C 843.6 451.6, 852.1 443.9, 854.1 441.1 C 856.1 438.2, 858.0 429.8, 859.4 427.0 C 860.8 424.2, 866.8 416.9, 867.8 413.8 C 868.8 410.7, 868.8 400.9, 868.7 397.0 C 868.5 393.1, 866.9 380.8, 866.5 376.1 C 866.1 371.4, 865.1 356.8, 865.2 351.3 C 865.3 345.9, 865.9 328.7, 867.5 323.3 C 869.1 317.9, 876.6 302.8, 880.6 298.8 C 884.6 294.8, 899.8 285.8, 906.2 284.9 C 912.6 283.9, 935.4 288.8, 942.5 289.9 C 949.6 291.1, 968.5 294.7, 974.8 296.0 C 981.2 297.3, 998.1 301.9, 1003.8 302.9 C 1009.5 303.9, 1024.5 306.0, 1030.0 305.6 C 1035.5 305.2, 1051.4 298.9, 1056.8 298.9 C 1062.2 298.9, 1077.5 303.0, 1082.1 305.5 C 1086.7 308.0, 1098.2 319.1, 1101.2 323.4 C 1104.3 327.8, 1110.0 343.1, 1111.8 347.7 C 1113.7 352.3, 1118.4 363.5, 1119.2 367.8 C 1119.9 372.1, 1119.0 385.6, 1119.4 389.3 C 1119.8 393.0, 1121.2 401.1, 1122.5 403.4 C 1123.9 405.6, 1128.3 410.5, 1132.2 411.3 C 1136.0 412.2, 1152.8 411.3, 1159.4 411.4 C 1166.1 411.5, 1188.3 411.7, 1196.2 412.4 C 1204.1 413.1, 1226.4 416.6, 1235.8 418.1 C 1245.2 419.7, 1278.4 424.8, 1287.0 427.8 C 1295.6 430.7, 1312.6 442.2, 1319.1 446.5 C 1325.6 450.9, 1346.4 464.9, 1349.9 470.0 Z" fill="url(#shoreGrad)"/><path d="M 1341.9 470.0 C 1345.4 475.0, 1345.2 490.3, 1344.8 495.5 C 1344.4 500.8, 1341.3 515.9, 1338.3 520.7 C 1335.3 525.5, 1319.6 537.5, 1315.8 542.0 C 1312.0 546.5, 1303.6 559.2, 1301.4 564.1 C 1299.2 569.0, 1297.7 585.1, 1294.5 589.6 C 1291.3 594.2, 1276.1 604.8, 1270.4 608.0 C 1264.7 611.2, 1246.8 619.3, 1239.4 620.8 C 1232.1 622.3, 1208.2 623.9, 1199.1 622.7 C 1190.0 621.5, 1160.5 612.4, 1151.3 609.1 C 1142.2 605.7, 1117.7 593.7, 1110.6 590.5 C 1103.5 587.3, 1087.8 580.9, 1082.6 578.2 C 1077.3 575.4, 1063.8 566.2, 1059.7 563.8 C 1055.7 561.4, 1046.4 555.6, 1043.3 555.3 C 1040.3 555.0, 1033.1 558.8, 1030.0 560.9 C 1026.9 562.9, 1017.4 572.5, 1013.5 575.3 C 1009.7 578.0, 998.0 584.0, 992.8 587.3 C 987.6 590.6, 969.4 604.4, 963.4 607.1 C 957.3 609.8, 940.1 612.8, 934.0 613.5 C 928.0 614.2, 909.6 615.1, 904.4 613.9 C 899.2 612.8, 886.5 605.6, 883.4 602.3 C 880.3 599.0, 876.2 586.0, 874.4 582.1 C 872.6 578.1, 869.2 567.0, 866.1 564.1 C 863.0 561.2, 849.3 556.2, 844.1 554.1 C 838.9 552.1, 820.5 547.0, 815.6 544.3 C 810.8 541.7, 799.5 532.3, 797.2 528.7 C 794.9 525.0, 792.9 513.0, 793.4 508.9 C 793.8 504.7, 797.8 492.6, 801.3 488.5 C 804.8 484.5, 822.4 473.4, 827.2 470.0 C 832.1 466.6, 844.4 458.1, 848.0 455.2 C 851.6 452.4, 860.0 445.1, 862.0 442.4 C 864.0 439.7, 865.8 431.7, 867.2 429.0 C 868.5 426.3, 874.4 419.3, 875.4 416.4 C 876.3 413.4, 876.2 404.1, 876.0 400.3 C 875.8 396.6, 873.9 384.7, 873.4 380.1 C 873.0 375.5, 871.7 361.3, 871.7 356.0 C 871.7 350.7, 872.0 333.9, 873.4 328.6 C 874.9 323.4, 882.0 308.7, 885.9 304.8 C 889.7 301.0, 904.4 292.3, 910.6 291.5 C 916.8 290.7, 939.1 295.9, 946.0 297.1 C 952.9 298.4, 971.2 302.2, 977.3 303.6 C 983.4 305.0, 999.6 309.8, 1005.1 310.8 C 1010.5 311.8, 1024.8 314.0, 1030.0 313.6 C 1035.2 313.2, 1050.4 306.8, 1055.5 306.8 C 1060.7 306.8, 1075.4 310.7, 1079.7 313.1 C 1084.1 315.6, 1094.9 326.3, 1097.7 330.6 C 1100.6 334.9, 1105.7 349.9, 1107.4 354.3 C 1109.0 358.8, 1113.3 369.7, 1113.9 373.9 C 1114.5 378.0, 1113.2 391.1, 1113.5 394.6 C 1113.7 398.2, 1114.8 405.9, 1116.1 408.0 C 1117.3 410.2, 1121.5 414.6, 1125.2 415.3 C 1129.0 416.0, 1145.6 414.8, 1152.1 414.7 C 1158.7 414.7, 1180.8 414.4, 1188.6 415.0 C 1196.5 415.6, 1218.7 418.6, 1228.1 420.1 C 1237.4 421.6, 1270.5 426.3, 1279.1 429.1 C 1287.7 431.9, 1304.6 443.0, 1311.1 447.2 C 1317.6 451.4, 1338.4 465.0, 1341.9 470.0 Z" fill="url(#land)" stroke="rgba(167,139,250,0.45)" stroke-width="2"/><path d="M 1341.9 470.0 C 1345.4 475.0, 1345.2 490.3, 1344.8 495.5 C 1344.4 500.8, 1341.3 515.9, 1338.3 520.7 C 1335.3 525.5, 1319.6 537.5, 1315.8 542.0 C 1312.0 546.5, 1303.6 559.2, 1301.4 564.1 C 1299.2 569.0, 1297.7 585.1, 1294.5 589.6 C 1291.3 594.2, 1276.1 604.8, 1270.4 608.0 C 1264.7 611.2, 1246.8 619.3, 1239.4 620.8 C 1232.1 622.3, 1208.2 623.9, 1199.1 622.7 C 1190.0 621.5, 1160.5 612.4, 1151.3 609.1 C 1142.2 605.7, 1117.7 593.7, 1110.6 590.5 C 1103.5 587.3, 1087.8 580.9, 1082.6 578.2 C 1077.3 575.4, 1063.8 566.2, 1059.7 563.8 C 1055.7 561.4, 1046.4 555.6, 1043.3 555.3 C 1040.3 555.0, 1033.1 558.8, 1030.0 560.9 C 1026.9 562.9, 1017.4 572.5, 1013.5 575.3 C 1009.7 578.0, 998.0 584.0, 992.8 587.3 C 987.6 590.6, 969.4 604.4, 963.4 607.1 C 957.3 609.8, 940.1 612.8, 934.0 613.5 C 928.0 614.2, 909.6 615.1, 904.4 613.9 C 899.2 612.8, 886.5 605.6, 883.4 602.3 C 880.3 599.0, 876.2 586.0, 874.4 582.1 C 872.6 578.1, 869.2 567.0, 866.1 564.1 C 863.0 561.2, 849.3 556.2, 844.1 554.1 C 838.9 552.1, 820.5 547.0, 815.6 544.3 C 810.8 541.7, 799.5 532.3, 797.2 528.7 C 794.9 525.0, 792.9 513.0, 793.4 508.9 C 793.8 504.7, 797.8 492.6, 801.3 488.5 C 804.8 484.5, 822.4 473.4, 827.2 470.0 C 832.1 466.6, 844.4 458.1, 848.0 455.2 C 851.6 452.4, 860.0 445.1, 862.0 442.4 C 864.0 439.7, 865.8 431.7, 867.2 429.0 C 868.5 426.3, 874.4 419.3, 875.4 416.4 C 876.3 413.4, 876.2 404.1, 876.0 400.3 C 875.8 396.6, 873.9 384.7, 873.4 380.1 C 873.0 375.5, 871.7 361.3, 871.7 356.0 C 871.7 350.7, 872.0 333.9, 873.4 328.6 C 874.9 323.4, 882.0 308.7, 885.9 304.8 C 889.7 301.0, 904.4 292.3, 910.6 291.5 C 916.8 290.7, 939.1 295.9, 946.0 297.1 C 952.9 298.4, 971.2 302.2, 977.3 303.6 C 983.4 305.0, 999.6 309.8, 1005.1 310.8 C 1010.5 311.8, 1024.8 314.0, 1030.0 313.6 C 1035.2 313.2, 1050.4 306.8, 1055.5 306.8 C 1060.7 306.8, 1075.4 310.7, 1079.7 313.1 C 1084.1 315.6, 1094.9 326.3, 1097.7 330.6 C 1100.6 334.9, 1105.7 349.9, 1107.4 354.3 C 1109.0 358.8, 1113.3 369.7, 1113.9 373.9 C 1114.5 378.0, 1113.2 391.1, 1113.5 394.6 C 1113.7 398.2, 1114.8 405.9, 1116.1 408.0 C 1117.3 410.2, 1121.5 414.6, 1125.2 415.3 C 1129.0 416.0, 1145.6 414.8, 1152.1 414.7 C 1158.7 414.7, 1180.8 414.4, 1188.6 415.0 C 1196.5 415.6, 1218.7 418.6, 1228.1 420.1 C 1237.4 421.6, 1270.5 426.3, 1279.1 429.1 C 1287.7 431.9, 1304.6 443.0, 1311.1 447.2 C 1317.6 451.4, 1338.4 465.0, 1341.9 470.0 Z" fill="none" stroke="rgba(255,255,255,0.06)" stroke-width="5"/><path d="M 1341.9 470.0 C 1345.4 475.0, 1345.2 490.3, 1344.8 495.5 C 1344.4 500.8, 1341.3 515.9, 1338.3 520.7 C 1335.3 525.5, 1319.6 537.5, 1315.8 542.0 C 1312.0 546.5, 1303.6 559.2, 1301.4 564.1 C 1299.2 569.0, 1297.7 585.1, 1294.5 589.6 C 1291.3 594.2, 1276.1 604.8, 1270.4 608.0 C 1264.7 611.2, 1246.8 619.3, 1239.4 620.8 C 1232.1 622.3, 1208.2 623.9, 1199.1 622.7 C 1190.0 621.5, 1160.5 612.4, 1151.3 609.1 C 1142.2 605.7, 1117.7 593.7, 1110.6 590.5 C 1103.5 587.3, 1087.8 580.9, 1082.6 578.2 C 1077.3 575.4, 1063.8 566.2, 1059.7 563.8 C 1055.7 561.4, 1046.4 555.6, 1043.3 555.3 C 1040.3 555.0, 1033.1 558.8, 1030.0 560.9 C 1026.9 562.9, 1017.4 572.5, 1013.5 575.3 C 1009.7 578.0, 998.0 584.0, 992.8 587.3 C 987.6 590.6, 969.4 604.4, 963.4 607.1 C 957.3 609.8, 940.1 612.8, 934.0 613.5 C 928.0 614.2, 909.6 615.1, 904.4 613.9 C 899.2 612.8, 886.5 605.6, 883.4 602.3 C 880.3 599.0, 876.2 586.0, 874.4 582.1 C 872.6 578.1, 869.2 567.0, 866.1 564.1 C 863.0 561.2, 849.3 556.2, 844.1 554.1 C 838.9 552.1, 820.5 547.0, 815.6 544.3 C 810.8 541.7, 799.5 532.3, 797.2 528.7 C 794.9 525.0, 792.9 513.0, 793.4 508.9 C 793.8 504.7, 797.8 492.6, 801.3 488.5 C 804.8 484.5, 822.4 473.4, 827.2 470.0 C 832.1 466.6, 844.4 458.1, 848.0 455.2 C 851.6 452.4, 860.0 445.1, 862.0 442.4 C 864.0 439.7, 865.8 431.7, 867.2 429.0 C 868.5 426.3, 874.4 419.3, 875.4 416.4 C 876.3 413.4, 876.2 404.1, 876.0 400.3 C 875.8 396.6, 873.9 384.7, 873.4 380.1 C 873.0 375.5, 871.7 361.3, 871.7 356.0 C 871.7 350.7, 872.0 333.9, 873.4 328.6 C 874.9 323.4, 882.0 308.7, 885.9 304.8 C 889.7 301.0, 904.4 292.3, 910.6 291.5 C 916.8 290.7, 939.1 295.9, 946.0 297.1 C 952.9 298.4, 971.2 302.2, 977.3 303.6 C 983.4 305.0, 999.6 309.8, 1005.1 310.8 C 1010.5 311.8, 1024.8 314.0, 1030.0 313.6 C 1035.2 313.2, 1050.4 306.8, 1055.5 306.8 C 1060.7 306.8, 1075.4 310.7, 1079.7 313.1 C 1084.1 315.6, 1094.9 326.3, 1097.7 330.6 C 1100.6 334.9, 1105.7 349.9, 1107.4 354.3 C 1109.0 358.8, 1113.3 369.7, 1113.9 373.9 C 1114.5 378.0, 1113.2 391.1, 1113.5 394.6 C 1113.7 398.2, 1114.8 405.9, 1116.1 408.0 C 1117.3 410.2, 1121.5 414.6, 1125.2 415.3 C 1129.0 416.0, 1145.6 414.8, 1152.1 414.7 C 1158.7 414.7, 1180.8 414.4, 1188.6 415.0 C 1196.5 415.6, 1218.7 418.6, 1228.1 420.1 C 1237.4 421.6, 1270.5 426.3, 1279.1 429.1 C 1287.7 431.9, 1304.6 443.0, 1311.1 447.2 C 1317.6 451.4, 1338.4 465.0, 1341.9 470.0 Z" fill="none" stroke="rgba(167,139,250,0.16)" stroke-width="9" filter="url(#softGlow)"/>
<path d="M 583.6 610.0 C 578.1 613.2, 561.2 620.9, 557.4 623.6 C 553.7 626.3, 549.0 633.3, 547.4 635.9 C 545.9 638.4, 543.2 645.7, 542.3 648.4 C 541.4 651.0, 539.7 658.9, 538.5 661.5 C 537.3 664.1, 532.1 671.0, 530.6 673.6 C 529.1 676.3, 524.4 683.3, 524.3 687.1 C 524.2 690.9, 529.8 706.1, 529.5 710.5 C 529.3 714.8, 525.3 726.8, 522.1 729.2 C 518.9 731.7, 503.1 733.1, 498.5 734.3 C 493.9 735.5, 482.0 739.8, 477.5 740.8 C 473.0 741.8, 459.4 742.4, 455.1 743.9 C 450.8 745.5, 440.3 752.7, 436.2 755.7 C 432.1 758.6, 420.2 768.5, 415.4 772.5 C 410.7 776.5, 396.0 789.5, 390.0 794.2 C 384.0 799.0, 364.4 815.2, 357.4 818.4 C 350.3 821.6, 329.0 824.8, 321.8 825.1 C 314.6 825.4, 293.8 823.2, 287.4 821.1 C 281.0 819.0, 264.6 809.0, 259.6 805.0 C 254.6 801.1, 243.2 787.2, 239.1 782.9 C 235.0 778.7, 223.7 767.6, 219.5 763.9 C 215.3 760.3, 202.6 751.3, 198.8 747.7 C 194.9 744.1, 185.9 732.9, 182.6 729.1 C 179.3 725.3, 170.3 714.6, 166.8 711.0 C 163.4 707.3, 151.8 697.4, 149.3 693.4 C 146.8 689.5, 143.7 676.7, 142.5 672.4 C 141.2 668.0, 136.3 656.0, 137.4 651.5 C 138.6 647.0, 149.5 633.5, 153.7 629.2 C 158.0 624.9, 172.5 613.5, 178.4 610.0 C 184.3 606.5, 204.6 598.0, 210.7 595.5 C 216.9 592.9, 233.3 587.0, 237.9 585.0 C 242.5 583.0, 253.6 578.4, 255.0 576.0 C 256.4 573.6, 253.7 565.8, 251.8 562.1 C 249.9 558.4, 237.8 544.6, 236.4 540.5 C 234.9 536.4, 236.7 526.0, 237.9 522.7 C 239.2 519.3, 245.3 510.4, 248.4 508.0 C 251.4 505.6, 263.6 501.2, 267.6 499.5 C 271.5 497.8, 282.5 492.8, 286.6 491.5 C 290.7 490.2, 303.4 488.1, 307.4 486.5 C 311.3 484.9, 321.3 478.9, 324.9 476.0 C 328.4 473.1, 337.9 461.7, 341.9 458.3 C 346.0 455.0, 359.0 446.3, 364.0 443.5 C 368.9 440.8, 384.2 434.4, 390.0 431.7 C 395.8 429.0, 413.4 420.2, 420.2 417.2 C 427.0 414.2, 448.6 403.7, 455.9 402.2 C 463.2 400.7, 484.2 401.3, 490.7 402.8 C 497.2 404.3, 513.6 413.8, 519.1 416.9 C 524.6 420.1, 540.6 428.7, 544.1 433.4 C 547.6 438.1, 551.2 457.3, 553.2 462.6 C 555.3 467.9, 560.6 481.2, 563.7 485.0 C 566.7 488.8, 578.6 496.4, 583.0 499.2 C 587.3 502.0, 600.7 509.6, 605.8 512.3 C 611.0 515.1, 629.3 522.2, 632.9 525.8 C 636.6 529.3, 641.0 542.2, 640.8 546.8 C 640.7 551.4, 634.8 565.6, 631.6 570.3 C 628.4 575.0, 615.0 588.0, 610.0 592.1 C 605.1 596.3, 589.0 606.8, 583.6 610.0 Z" fill="url(#shelfGrad)" opacity="0.55"/><path d="M 561.6 610.0 C 556.1 612.9, 539.2 619.5, 535.5 621.8 C 531.8 624.1, 527.2 630.1, 525.7 632.3 C 524.2 634.5, 521.8 640.7, 520.9 643.0 C 520.1 645.3, 518.8 652.1, 517.7 654.3 C 516.6 656.5, 511.9 662.3, 510.6 664.5 C 509.3 666.8, 505.1 672.7, 505.2 676.1 C 505.3 679.6, 511.6 693.6, 511.7 697.6 C 511.7 701.6, 508.6 712.4, 505.7 714.5 C 502.9 716.6, 488.2 716.9, 484.0 717.7 C 479.8 718.6, 469.2 721.9, 465.3 722.5 C 461.3 723.2, 449.2 722.9, 445.5 724.2 C 441.8 725.4, 433.0 732.0, 429.5 734.7 C 426.1 737.5, 416.1 746.9, 412.0 750.7 C 407.9 754.6, 395.3 767.5, 390.0 772.2 C 384.7 777.0, 367.2 793.3, 360.8 796.6 C 354.4 799.9, 335.0 803.7, 328.5 804.2 C 321.9 804.6, 302.9 803.1, 297.0 801.3 C 291.2 799.5, 276.3 790.3, 271.8 786.7 C 267.3 783.1, 257.3 770.2, 253.6 766.3 C 249.8 762.5, 239.7 752.4, 235.8 749.2 C 232.0 745.9, 220.1 738.1, 216.6 734.8 C 213.1 731.6, 204.7 721.5, 201.7 718.1 C 198.6 714.7, 190.2 705.2, 186.9 701.9 C 183.6 698.6, 172.5 689.8, 170.1 686.2 C 167.7 682.6, 164.9 670.9, 163.8 667.0 C 162.7 663.0, 157.9 652.0, 159.1 647.9 C 160.4 643.8, 171.4 631.3, 175.7 627.4 C 179.9 623.5, 194.5 613.1, 200.4 610.0 C 206.3 606.9, 226.5 599.4, 232.6 597.2 C 238.8 595.0, 255.1 590.2, 259.6 588.6 C 264.1 586.9, 275.0 583.4, 276.3 581.4 C 277.7 579.4, 274.7 572.6, 272.6 569.3 C 270.5 566.0, 258.0 553.3, 256.4 549.6 C 254.8 545.9, 256.0 536.6, 257.0 533.6 C 258.0 530.7, 263.4 522.9, 266.2 520.9 C 269.0 518.9, 280.3 515.5, 283.9 514.2 C 287.5 512.9, 297.4 509.0, 301.0 508.1 C 304.7 507.1, 316.2 506.0, 319.6 504.8 C 323.1 503.5, 331.5 498.4, 334.5 495.8 C 337.5 493.1, 345.2 482.4, 348.6 479.3 C 352.0 476.1, 363.1 467.9, 367.4 465.3 C 371.6 462.6, 384.9 456.4, 390.0 453.7 C 395.1 451.0, 410.7 442.1, 416.8 438.9 C 422.9 435.8, 442.6 424.9, 449.2 423.2 C 455.9 421.5, 475.1 421.3, 481.1 422.6 C 487.0 423.8, 501.9 432.4, 506.9 435.2 C 511.9 438.1, 526.5 445.6, 529.6 450.0 C 532.7 454.4, 535.2 472.4, 536.9 477.4 C 538.6 482.3, 543.0 494.4, 545.8 497.8 C 548.6 501.2, 559.8 507.7, 563.9 510.2 C 568.0 512.6, 580.8 519.1, 585.8 521.4 C 590.8 523.8, 608.7 529.8, 612.1 533.0 C 615.6 536.2, 619.7 548.0, 619.5 552.2 C 619.3 556.4, 613.1 569.6, 609.9 573.9 C 606.6 578.2, 593.1 590.2, 588.1 593.9 C 583.1 597.7, 567.0 607.1, 561.6 610.0 Z" fill="rgba(0,0,0,0.45)" filter="url(#landShadow)" transform="translate(5,10)"/><path d="M 569.6 610.0 C 564.1 613.0, 547.2 620.0, 543.5 622.5 C 539.8 624.9, 535.2 631.3, 533.6 633.6 C 532.1 635.9, 529.6 642.5, 528.7 644.9 C 527.8 647.4, 526.4 654.5, 525.3 656.9 C 524.1 659.3, 519.2 665.4, 517.9 667.8 C 516.5 670.2, 512.1 676.6, 512.1 680.1 C 512.2 683.7, 518.2 698.2, 518.2 702.3 C 518.1 706.4, 514.7 717.6, 511.7 719.8 C 508.7 722.1, 493.6 722.8, 489.3 723.8 C 484.9 724.7, 473.9 728.4, 469.7 729.2 C 465.5 730.0, 452.9 730.0, 449.0 731.3 C 445.1 732.7, 435.6 739.5, 432.0 742.3 C 428.3 745.2, 417.6 754.7, 413.3 758.6 C 408.9 762.6, 395.5 775.5, 390.0 780.2 C 384.5 785.0, 366.2 801.3, 359.6 804.5 C 352.9 807.8, 332.9 811.4, 326.0 811.8 C 319.2 812.2, 299.6 810.4, 293.5 808.5 C 287.5 806.6, 272.0 797.1, 267.3 793.4 C 262.7 789.6, 252.2 776.4, 248.3 772.4 C 244.4 768.4, 233.8 757.9, 229.9 754.5 C 226.0 751.2, 213.8 742.9, 210.1 739.5 C 206.5 736.2, 197.9 725.7, 194.7 722.1 C 191.6 718.6, 182.9 708.6, 179.6 705.2 C 176.3 701.7, 165.0 692.6, 162.6 688.9 C 160.1 685.1, 157.2 673.0, 156.0 668.9 C 154.9 664.9, 150.0 653.5, 151.2 649.2 C 152.4 645.0, 163.4 632.1, 167.7 628.0 C 171.9 624.0, 186.5 613.2, 192.4 610.0 C 198.3 606.8, 218.5 598.9, 224.7 596.6 C 230.8 594.2, 247.2 589.0, 251.7 587.3 C 256.2 585.5, 267.2 581.5, 268.6 579.4 C 270.0 577.3, 267.0 570.1, 265.0 566.7 C 263.0 563.2, 250.7 550.1, 249.1 546.3 C 247.6 542.4, 249.0 532.8, 250.1 529.6 C 251.2 526.5, 256.8 518.3, 259.7 516.2 C 262.6 514.0, 274.2 510.3, 278.0 508.9 C 281.7 507.4, 291.9 503.2, 295.8 502.0 C 299.6 500.9, 311.5 499.5, 315.2 498.1 C 318.8 496.7, 327.8 491.3, 331.0 488.6 C 334.2 485.8, 342.5 474.9, 346.1 471.7 C 349.8 468.4, 361.6 460.1, 366.1 457.4 C 370.6 454.7, 384.6 448.4, 390.0 445.7 C 395.4 443.0, 411.6 434.1, 418.0 431.0 C 424.4 427.9, 444.8 417.2, 451.6 415.6 C 458.5 414.0, 478.4 414.0, 484.6 415.4 C 490.8 416.7, 506.1 425.6, 511.3 428.6 C 516.5 431.5, 531.6 439.5, 534.9 444.0 C 538.1 448.5, 541.0 466.9, 542.8 472.0 C 544.6 477.1, 549.4 489.6, 552.3 493.2 C 555.2 496.7, 566.6 503.6, 570.8 506.2 C 575.0 508.7, 588.0 515.6, 593.1 518.1 C 598.1 520.6, 616.2 527.0, 619.7 530.4 C 623.2 533.7, 627.5 545.9, 627.3 550.2 C 627.1 554.6, 621.0 568.1, 617.8 572.6 C 614.5 577.0, 601.1 589.4, 596.1 593.3 C 591.1 597.1, 575.0 607.0, 569.6 610.0 Z" fill="url(#shoreGrad)"/><path d="M 561.6 610.0 C 556.1 612.9, 539.2 619.5, 535.5 621.8 C 531.8 624.1, 527.2 630.1, 525.7 632.3 C 524.2 634.5, 521.8 640.7, 520.9 643.0 C 520.1 645.3, 518.8 652.1, 517.7 654.3 C 516.6 656.5, 511.9 662.3, 510.6 664.5 C 509.3 666.8, 505.1 672.7, 505.2 676.1 C 505.3 679.6, 511.6 693.6, 511.7 697.6 C 511.7 701.6, 508.6 712.4, 505.7 714.5 C 502.9 716.6, 488.2 716.9, 484.0 717.7 C 479.8 718.6, 469.2 721.9, 465.3 722.5 C 461.3 723.2, 449.2 722.9, 445.5 724.2 C 441.8 725.4, 433.0 732.0, 429.5 734.7 C 426.1 737.5, 416.1 746.9, 412.0 750.7 C 407.9 754.6, 395.3 767.5, 390.0 772.2 C 384.7 777.0, 367.2 793.3, 360.8 796.6 C 354.4 799.9, 335.0 803.7, 328.5 804.2 C 321.9 804.6, 302.9 803.1, 297.0 801.3 C 291.2 799.5, 276.3 790.3, 271.8 786.7 C 267.3 783.1, 257.3 770.2, 253.6 766.3 C 249.8 762.5, 239.7 752.4, 235.8 749.2 C 232.0 745.9, 220.1 738.1, 216.6 734.8 C 213.1 731.6, 204.7 721.5, 201.7 718.1 C 198.6 714.7, 190.2 705.2, 186.9 701.9 C 183.6 698.6, 172.5 689.8, 170.1 686.2 C 167.7 682.6, 164.9 670.9, 163.8 667.0 C 162.7 663.0, 157.9 652.0, 159.1 647.9 C 160.4 643.8, 171.4 631.3, 175.7 627.4 C 179.9 623.5, 194.5 613.1, 200.4 610.0 C 206.3 606.9, 226.5 599.4, 232.6 597.2 C 238.8 595.0, 255.1 590.2, 259.6 588.6 C 264.1 586.9, 275.0 583.4, 276.3 581.4 C 277.7 579.4, 274.7 572.6, 272.6 569.3 C 270.5 566.0, 258.0 553.3, 256.4 549.6 C 254.8 545.9, 256.0 536.6, 257.0 533.6 C 258.0 530.7, 263.4 522.9, 266.2 520.9 C 269.0 518.9, 280.3 515.5, 283.9 514.2 C 287.5 512.9, 297.4 509.0, 301.0 508.1 C 304.7 507.1, 316.2 506.0, 319.6 504.8 C 323.1 503.5, 331.5 498.4, 334.5 495.8 C 337.5 493.1, 345.2 482.4, 348.6 479.3 C 352.0 476.1, 363.1 467.9, 367.4 465.3 C 371.6 462.6, 384.9 456.4, 390.0 453.7 C 395.1 451.0, 410.7 442.1, 416.8 438.9 C 422.9 435.8, 442.6 424.9, 449.2 423.2 C 455.9 421.5, 475.1 421.3, 481.1 422.6 C 487.0 423.8, 501.9 432.4, 506.9 435.2 C 511.9 438.1, 526.5 445.6, 529.6 450.0 C 532.7 454.4, 535.2 472.4, 536.9 477.4 C 538.6 482.3, 543.0 494.4, 545.8 497.8 C 548.6 501.2, 559.8 507.7, 563.9 510.2 C 568.0 512.6, 580.8 519.1, 585.8 521.4 C 590.8 523.8, 608.7 529.8, 612.1 533.0 C 615.6 536.2, 619.7 548.0, 619.5 552.2 C 619.3 556.4, 613.1 569.6, 609.9 573.9 C 606.6 578.2, 593.1 590.2, 588.1 593.9 C 583.1 597.7, 567.0 607.1, 561.6 610.0 Z" fill="url(#land)" stroke="rgba(167,139,250,0.45)" stroke-width="2"/><path d="M 561.6 610.0 C 556.1 612.9, 539.2 619.5, 535.5 621.8 C 531.8 624.1, 527.2 630.1, 525.7 632.3 C 524.2 634.5, 521.8 640.7, 520.9 643.0 C 520.1 645.3, 518.8 652.1, 517.7 654.3 C 516.6 656.5, 511.9 662.3, 510.6 664.5 C 509.3 666.8, 505.1 672.7, 505.2 676.1 C 505.3 679.6, 511.6 693.6, 511.7 697.6 C 511.7 701.6, 508.6 712.4, 505.7 714.5 C 502.9 716.6, 488.2 716.9, 484.0 717.7 C 479.8 718.6, 469.2 721.9, 465.3 722.5 C 461.3 723.2, 449.2 722.9, 445.5 724.2 C 441.8 725.4, 433.0 732.0, 429.5 734.7 C 426.1 737.5, 416.1 746.9, 412.0 750.7 C 407.9 754.6, 395.3 767.5, 390.0 772.2 C 384.7 777.0, 367.2 793.3, 360.8 796.6 C 354.4 799.9, 335.0 803.7, 328.5 804.2 C 321.9 804.6, 302.9 803.1, 297.0 801.3 C 291.2 799.5, 276.3 790.3, 271.8 786.7 C 267.3 783.1, 257.3 770.2, 253.6 766.3 C 249.8 762.5, 239.7 752.4, 235.8 749.2 C 232.0 745.9, 220.1 738.1, 216.6 734.8 C 213.1 731.6, 204.7 721.5, 201.7 718.1 C 198.6 714.7, 190.2 705.2, 186.9 701.9 C 183.6 698.6, 172.5 689.8, 170.1 686.2 C 167.7 682.6, 164.9 670.9, 163.8 667.0 C 162.7 663.0, 157.9 652.0, 159.1 647.9 C 160.4 643.8, 171.4 631.3, 175.7 627.4 C 179.9 623.5, 194.5 613.1, 200.4 610.0 C 206.3 606.9, 226.5 599.4, 232.6 597.2 C 238.8 595.0, 255.1 590.2, 259.6 588.6 C 264.1 586.9, 275.0 583.4, 276.3 581.4 C 277.7 579.4, 274.7 572.6, 272.6 569.3 C 270.5 566.0, 258.0 553.3, 256.4 549.6 C 254.8 545.9, 256.0 536.6, 257.0 533.6 C 258.0 530.7, 263.4 522.9, 266.2 520.9 C 269.0 518.9, 280.3 515.5, 283.9 514.2 C 287.5 512.9, 297.4 509.0, 301.0 508.1 C 304.7 507.1, 316.2 506.0, 319.6 504.8 C 323.1 503.5, 331.5 498.4, 334.5 495.8 C 337.5 493.1, 345.2 482.4, 348.6 479.3 C 352.0 476.1, 363.1 467.9, 367.4 465.3 C 371.6 462.6, 384.9 456.4, 390.0 453.7 C 395.1 451.0, 410.7 442.1, 416.8 438.9 C 422.9 435.8, 442.6 424.9, 449.2 423.2 C 455.9 421.5, 475.1 421.3, 481.1 422.6 C 487.0 423.8, 501.9 432.4, 506.9 435.2 C 511.9 438.1, 526.5 445.6, 529.6 450.0 C 532.7 454.4, 535.2 472.4, 536.9 477.4 C 538.6 482.3, 543.0 494.4, 545.8 497.8 C 548.6 501.2, 559.8 507.7, 563.9 510.2 C 568.0 512.6, 580.8 519.1, 585.8 521.4 C 590.8 523.8, 608.7 529.8, 612.1 533.0 C 615.6 536.2, 619.7 548.0, 619.5 552.2 C 619.3 556.4, 613.1 569.6, 609.9 573.9 C 606.6 578.2, 593.1 590.2, 588.1 593.9 C 583.1 597.7, 567.0 607.1, 561.6 610.0 Z" fill="none" stroke="rgba(255,255,255,0.06)" stroke-width="5"/><path d="M 561.6 610.0 C 556.1 612.9, 539.2 619.5, 535.5 621.8 C 531.8 624.1, 527.2 630.1, 525.7 632.3 C 524.2 634.5, 521.8 640.7, 520.9 643.0 C 520.1 645.3, 518.8 652.1, 517.7 654.3 C 516.6 656.5, 511.9 662.3, 510.6 664.5 C 509.3 666.8, 505.1 672.7, 505.2 676.1 C 505.3 679.6, 511.6 693.6, 511.7 697.6 C 511.7 701.6, 508.6 712.4, 505.7 714.5 C 502.9 716.6, 488.2 716.9, 484.0 717.7 C 479.8 718.6, 469.2 721.9, 465.3 722.5 C 461.3 723.2, 449.2 722.9, 445.5 724.2 C 441.8 725.4, 433.0 732.0, 429.5 734.7 C 426.1 737.5, 416.1 746.9, 412.0 750.7 C 407.9 754.6, 395.3 767.5, 390.0 772.2 C 384.7 777.0, 367.2 793.3, 360.8 796.6 C 354.4 799.9, 335.0 803.7, 328.5 804.2 C 321.9 804.6, 302.9 803.1, 297.0 801.3 C 291.2 799.5, 276.3 790.3, 271.8 786.7 C 267.3 783.1, 257.3 770.2, 253.6 766.3 C 249.8 762.5, 239.7 752.4, 235.8 749.2 C 232.0 745.9, 220.1 738.1, 216.6 734.8 C 213.1 731.6, 204.7 721.5, 201.7 718.1 C 198.6 714.7, 190.2 705.2, 186.9 701.9 C 183.6 698.6, 172.5 689.8, 170.1 686.2 C 167.7 682.6, 164.9 670.9, 163.8 667.0 C 162.7 663.0, 157.9 652.0, 159.1 647.9 C 160.4 643.8, 171.4 631.3, 175.7 627.4 C 179.9 623.5, 194.5 613.1, 200.4 610.0 C 206.3 606.9, 226.5 599.4, 232.6 597.2 C 238.8 595.0, 255.1 590.2, 259.6 588.6 C 264.1 586.9, 275.0 583.4, 276.3 581.4 C 277.7 579.4, 274.7 572.6, 272.6 569.3 C 270.5 566.0, 258.0 553.3, 256.4 549.6 C 254.8 545.9, 256.0 536.6, 257.0 533.6 C 258.0 530.7, 263.4 522.9, 266.2 520.9 C 269.0 518.9, 280.3 515.5, 283.9 514.2 C 287.5 512.9, 297.4 509.0, 301.0 508.1 C 304.7 507.1, 316.2 506.0, 319.6 504.8 C 323.1 503.5, 331.5 498.4, 334.5 495.8 C 337.5 493.1, 345.2 482.4, 348.6 479.3 C 352.0 476.1, 363.1 467.9, 367.4 465.3 C 371.6 462.6, 384.9 456.4, 390.0 453.7 C 395.1 451.0, 410.7 442.1, 416.8 438.9 C 422.9 435.8, 442.6 424.9, 449.2 423.2 C 455.9 421.5, 475.1 421.3, 481.1 422.6 C 487.0 423.8, 501.9 432.4, 506.9 435.2 C 511.9 438.1, 526.5 445.6, 529.6 450.0 C 532.7 454.4, 535.2 472.4, 536.9 477.4 C 538.6 482.3, 543.0 494.4, 545.8 497.8 C 548.6 501.2, 559.8 507.7, 563.9 510.2 C 568.0 512.6, 580.8 519.1, 585.8 521.4 C 590.8 523.8, 608.7 529.8, 612.1 533.0 C 615.6 536.2, 619.7 548.0, 619.5 552.2 C 619.3 556.4, 613.1 569.6, 609.9 573.9 C 606.6 578.2, 593.1 590.2, 588.1 593.9 C 583.1 597.7, 567.0 607.1, 561.6 610.0 Z" fill="none" stroke="rgba(167,139,250,0.16)" stroke-width="9" filter="url(#softGlow)"/>
<path d="M 1366.5 150.0 C 1366.2 152.9, 1369.7 160.9, 1369.7 163.8 C 1369.6 166.6, 1367.6 174.7, 1366.3 177.3 C 1365.0 180.0, 1358.8 187.0, 1357.0 189.6 C 1355.2 192.1, 1352.0 199.8, 1349.2 201.7 C 1346.3 203.7, 1332.2 206.7, 1329.4 208.5 C 1326.5 210.4, 1323.4 217.5, 1321.6 219.8 C 1319.8 222.1, 1314.0 228.4, 1311.8 230.5 C 1309.6 232.6, 1302.5 238.2, 1300.2 240.5 C 1297.8 242.7, 1291.2 249.2, 1289.0 251.9 C 1286.7 254.7, 1280.9 264.1, 1278.3 267.1 C 1275.7 270.1, 1267.2 278.7, 1263.7 281.1 C 1260.2 283.5, 1248.6 288.2, 1244.5 290.4 C 1240.4 292.7, 1228.5 300.6, 1223.9 302.8 C 1219.3 305.0, 1205.0 311.4, 1200.0 311.5 C 1195.0 311.6, 1180.9 305.0, 1175.9 303.9 C 1171.0 302.8, 1156.7 302.2, 1152.3 300.6 C 1147.8 299.0, 1136.8 290.5, 1132.8 288.2 C 1128.9 285.8, 1117.4 280.8, 1114.4 277.9 C 1111.4 275.1, 1105.8 263.7, 1103.6 260.5 C 1101.3 257.3, 1094.9 249.5, 1092.7 246.8 C 1090.5 244.2, 1085.1 236.8, 1082.2 234.8 C 1079.3 232.9, 1067.8 229.5, 1064.6 227.7 C 1061.4 225.9, 1053.1 219.8, 1051.2 217.3 C 1049.2 214.8, 1046.3 206.5, 1045.5 203.6 C 1044.6 200.7, 1041.7 192.7, 1043.1 189.5 C 1044.5 186.4, 1055.7 176.2, 1058.9 173.2 C 1062.1 170.2, 1071.5 162.6, 1074.1 160.2 C 1076.7 157.8, 1082.3 151.9, 1084.3 150.0 C 1086.3 148.1, 1093.0 143.3, 1093.3 141.3 C 1093.6 139.4, 1089.2 133.8, 1087.2 131.5 C 1085.3 129.1, 1077.5 121.6, 1074.4 118.4 C 1071.3 115.2, 1059.3 104.1, 1057.0 100.4 C 1054.7 96.8, 1051.1 85.9, 1052.1 83.1 C 1053.1 80.3, 1063.7 75.4, 1066.7 73.5 C 1069.7 71.5, 1077.4 65.6, 1081.0 64.3 C 1084.6 63.1, 1097.6 61.9, 1101.5 61.1 C 1105.4 60.3, 1115.4 58.0, 1118.4 56.5 C 1121.4 55.0, 1128.3 49.3, 1130.6 46.2 C 1132.9 43.2, 1137.9 31.4, 1140.4 27.4 C 1142.9 23.5, 1151.5 12.6, 1155.0 8.0 C 1158.5 3.5, 1169.3 -13.5, 1173.9 -16.7 C 1178.6 -19.9, 1194.4 -21.8, 1200.0 -23.1 C 1205.6 -24.4, 1222.4 -29.3, 1228.0 -29.1 C 1233.7 -29.0, 1249.4 -24.0, 1254.5 -22.0 C 1259.6 -19.9, 1272.9 -11.9, 1277.4 -9.3 C 1282.0 -6.7, 1293.6 1.2, 1298.2 3.1 C 1302.9 5.1, 1316.7 8.9, 1322.3 9.9 C 1327.9 10.8, 1347.1 10.8, 1352.7 12.1 C 1358.3 13.5, 1371.7 20.5, 1376.7 22.8 C 1381.6 25.1, 1396.8 31.6, 1400.8 34.7 C 1404.7 37.8, 1412.8 48.8, 1414.6 52.9 C 1416.4 57.0, 1419.0 69.7, 1417.9 74.5 C 1416.8 79.2, 1406.9 94.0, 1403.8 98.7 C 1400.7 103.3, 1391.2 115.2, 1388.0 119.1 C 1384.9 123.0, 1375.3 132.8, 1373.1 136.0 C 1370.9 139.2, 1366.9 147.1, 1366.5 150.0 Z" fill="url(#shelfGrad)" opacity="0.55"/><path d="M 1344.5 150.0 C 1344.2 152.5, 1347.7 159.5, 1347.7 162.0 C 1347.7 164.4, 1345.8 171.5, 1344.6 173.8 C 1343.3 176.1, 1337.3 182.0, 1335.7 184.2 C 1334.0 186.3, 1331.1 192.9, 1328.4 194.5 C 1325.7 196.1, 1312.0 198.0, 1309.3 199.5 C 1306.7 201.0, 1304.1 207.0, 1302.5 208.9 C 1300.9 210.7, 1295.9 215.9, 1294.0 217.6 C 1292.0 219.4, 1285.9 223.9, 1283.9 225.7 C 1281.9 227.5, 1276.3 233.0, 1274.5 235.4 C 1272.7 237.8, 1268.2 246.1, 1266.1 248.8 C 1264.0 251.5, 1257.0 259.2, 1254.1 261.3 C 1251.2 263.5, 1241.3 267.4, 1237.9 269.5 C 1234.4 271.5, 1224.4 279.0, 1220.5 281.1 C 1216.6 283.1, 1204.3 289.4, 1200.0 289.5 C 1195.7 289.6, 1183.6 283.2, 1179.3 282.1 C 1175.1 281.1, 1162.7 281.0, 1158.9 279.6 C 1155.1 278.2, 1145.8 270.5, 1142.5 268.4 C 1139.1 266.3, 1129.2 262.2, 1126.7 259.7 C 1124.1 257.1, 1119.9 246.8, 1118.0 243.9 C 1116.2 241.1, 1110.9 234.4, 1109.1 232.1 C 1107.2 229.8, 1102.7 223.6, 1100.0 222.0 C 1097.4 220.4, 1086.7 218.2, 1083.7 216.8 C 1080.7 215.4, 1073.0 210.4, 1071.2 208.3 C 1069.4 206.2, 1067.0 198.9, 1066.3 196.4 C 1065.6 193.9, 1063.0 186.9, 1064.4 184.2 C 1065.9 181.4, 1077.3 172.3, 1080.6 169.6 C 1083.9 167.0, 1093.4 160.5, 1096.0 158.4 C 1098.7 156.4, 1104.3 151.6, 1106.3 150.0 C 1108.3 148.4, 1114.9 144.7, 1115.2 143.1 C 1115.5 141.6, 1110.9 137.0, 1108.9 135.0 C 1106.9 133.0, 1099.0 126.6, 1095.8 123.7 C 1092.5 120.9, 1080.2 110.9, 1077.8 107.6 C 1075.3 104.4, 1071.3 94.5, 1072.1 92.2 C 1073.0 89.8, 1083.1 86.0, 1085.8 84.4 C 1088.6 82.9, 1095.6 78.1, 1098.9 77.2 C 1102.2 76.3, 1114.3 76.2, 1117.8 75.8 C 1121.4 75.4, 1130.3 74.3, 1132.9 73.1 C 1135.5 71.9, 1141.1 67.2, 1142.8 64.5 C 1144.6 61.9, 1148.1 50.9, 1150.0 47.2 C 1152.0 43.5, 1158.8 33.4, 1161.6 29.0 C 1164.5 24.7, 1173.4 8.2, 1177.3 5.0 C 1181.3 1.9, 1195.1 0.2, 1200.0 -1.1 C 1204.9 -2.4, 1219.7 -7.4, 1224.6 -7.4 C 1229.6 -7.4, 1243.4 -2.9, 1247.9 -1.0 C 1252.3 0.8, 1263.9 8.1, 1267.8 10.5 C 1271.8 12.8, 1281.9 19.8, 1286.0 21.4 C 1290.1 23.1, 1302.6 25.9, 1307.8 26.4 C 1313.0 27.0, 1331.1 25.9, 1336.4 26.9 C 1341.6 27.8, 1354.1 33.7, 1358.8 35.7 C 1363.5 37.6, 1378.0 43.0, 1381.7 45.7 C 1385.4 48.4, 1393.0 58.3, 1394.6 62.0 C 1396.2 65.7, 1398.3 77.3, 1397.1 81.7 C 1395.8 86.0, 1385.7 99.8, 1382.5 104.0 C 1379.3 108.3, 1369.6 119.2, 1366.3 122.7 C 1363.1 126.1, 1353.4 134.9, 1351.1 137.7 C 1348.9 140.6, 1344.9 147.5, 1344.5 150.0 Z" fill="rgba(0,0,0,0.45)" filter="url(#landShadow)" transform="translate(5,10)"/><path d="M 1352.5 150.0 C 1352.2 152.6, 1355.7 160.0, 1355.7 162.6 C 1355.7 165.2, 1353.8 172.6, 1352.5 175.1 C 1351.2 177.5, 1345.1 183.8, 1343.4 186.1 C 1341.7 188.4, 1338.7 195.4, 1336.0 197.1 C 1333.2 198.9, 1319.4 201.1, 1316.6 202.8 C 1313.9 204.4, 1311.1 210.8, 1309.5 212.8 C 1307.8 214.9, 1302.5 220.4, 1300.4 222.3 C 1298.4 224.2, 1291.9 229.1, 1289.8 231.1 C 1287.7 233.0, 1281.8 238.9, 1279.8 241.4 C 1277.8 243.9, 1272.8 252.7, 1270.5 255.5 C 1268.3 258.3, 1260.7 266.3, 1257.6 268.5 C 1254.5 270.8, 1244.0 275.0, 1240.3 277.1 C 1236.6 279.2, 1225.9 286.8, 1221.7 289.0 C 1217.6 291.1, 1204.5 297.4, 1200.0 297.5 C 1195.5 297.6, 1182.6 291.1, 1178.1 290.1 C 1173.6 289.0, 1160.5 288.7, 1156.5 287.2 C 1152.4 285.8, 1142.5 277.8, 1139.0 275.6 C 1135.4 273.4, 1124.9 269.0, 1122.2 266.3 C 1119.5 263.7, 1114.7 252.9, 1112.8 249.9 C 1110.8 247.0, 1105.1 239.9, 1103.1 237.5 C 1101.1 235.1, 1096.3 228.4, 1093.5 226.7 C 1090.8 224.9, 1079.8 222.3, 1076.7 220.8 C 1073.7 219.2, 1065.8 213.8, 1063.9 211.6 C 1062.0 209.3, 1059.4 201.6, 1058.7 199.0 C 1058.0 196.4, 1055.2 189.0, 1056.7 186.1 C 1058.1 183.2, 1069.5 173.7, 1072.7 170.9 C 1076.0 168.1, 1085.4 161.2, 1088.0 159.1 C 1090.7 156.9, 1096.3 151.7, 1098.3 150.0 C 1100.3 148.3, 1107.0 144.2, 1107.2 142.5 C 1107.5 140.8, 1103.0 135.9, 1101.0 133.7 C 1099.1 131.6, 1091.2 124.8, 1088.0 121.8 C 1084.8 118.8, 1072.6 108.4, 1070.2 105.0 C 1067.8 101.6, 1063.9 91.4, 1064.8 88.9 C 1065.7 86.3, 1076.0 82.1, 1078.9 80.5 C 1081.7 78.8, 1089.0 73.6, 1092.4 72.5 C 1095.8 71.5, 1108.3 71.0, 1111.9 70.5 C 1115.5 69.9, 1124.9 68.4, 1127.6 67.1 C 1130.4 65.8, 1136.4 60.7, 1138.4 57.9 C 1140.3 55.1, 1144.4 43.8, 1146.5 40.0 C 1148.7 36.2, 1156.2 25.8, 1159.2 21.4 C 1162.3 17.0, 1171.9 0.3, 1176.1 -2.9 C 1180.3 -6.0, 1194.9 -7.8, 1200.0 -9.1 C 1205.1 -10.4, 1220.7 -15.4, 1225.9 -15.3 C 1231.1 -15.3, 1245.6 -10.6, 1250.3 -8.6 C 1255.0 -6.7, 1267.2 0.8, 1271.3 3.3 C 1275.5 5.7, 1286.1 13.0, 1290.4 14.8 C 1294.8 16.6, 1307.7 19.7, 1313.1 20.4 C 1318.5 21.1, 1336.9 20.4, 1342.3 21.5 C 1347.7 22.6, 1360.5 28.9, 1365.3 31.0 C 1370.1 33.1, 1384.8 38.8, 1388.6 41.7 C 1392.4 44.6, 1400.2 54.8, 1401.9 58.7 C 1403.5 62.5, 1405.8 74.6, 1404.6 79.0 C 1403.4 83.5, 1393.4 97.7, 1390.2 102.1 C 1387.1 106.4, 1377.4 117.8, 1374.2 121.4 C 1371.0 125.0, 1361.4 134.1, 1359.1 137.1 C 1356.9 140.0, 1352.9 147.4, 1352.5 150.0 Z" fill="url(#shoreGrad)"/><path d="M 1344.5 150.0 C 1344.2 152.5, 1347.7 159.5, 1347.7 162.0 C 1347.7 164.4, 1345.8 171.5, 1344.6 173.8 C 1343.3 176.1, 1337.3 182.0, 1335.7 184.2 C 1334.0 186.3, 1331.1 192.9, 1328.4 194.5 C 1325.7 196.1, 1312.0 198.0, 1309.3 199.5 C 1306.7 201.0, 1304.1 207.0, 1302.5 208.9 C 1300.9 210.7, 1295.9 215.9, 1294.0 217.6 C 1292.0 219.4, 1285.9 223.9, 1283.9 225.7 C 1281.9 227.5, 1276.3 233.0, 1274.5 235.4 C 1272.7 237.8, 1268.2 246.1, 1266.1 248.8 C 1264.0 251.5, 1257.0 259.2, 1254.1 261.3 C 1251.2 263.5, 1241.3 267.4, 1237.9 269.5 C 1234.4 271.5, 1224.4 279.0, 1220.5 281.1 C 1216.6 283.1, 1204.3 289.4, 1200.0 289.5 C 1195.7 289.6, 1183.6 283.2, 1179.3 282.1 C 1175.1 281.1, 1162.7 281.0, 1158.9 279.6 C 1155.1 278.2, 1145.8 270.5, 1142.5 268.4 C 1139.1 266.3, 1129.2 262.2, 1126.7 259.7 C 1124.1 257.1, 1119.9 246.8, 1118.0 243.9 C 1116.2 241.1, 1110.9 234.4, 1109.1 232.1 C 1107.2 229.8, 1102.7 223.6, 1100.0 222.0 C 1097.4 220.4, 1086.7 218.2, 1083.7 216.8 C 1080.7 215.4, 1073.0 210.4, 1071.2 208.3 C 1069.4 206.2, 1067.0 198.9, 1066.3 196.4 C 1065.6 193.9, 1063.0 186.9, 1064.4 184.2 C 1065.9 181.4, 1077.3 172.3, 1080.6 169.6 C 1083.9 167.0, 1093.4 160.5, 1096.0 158.4 C 1098.7 156.4, 1104.3 151.6, 1106.3 150.0 C 1108.3 148.4, 1114.9 144.7, 1115.2 143.1 C 1115.5 141.6, 1110.9 137.0, 1108.9 135.0 C 1106.9 133.0, 1099.0 126.6, 1095.8 123.7 C 1092.5 120.9, 1080.2 110.9, 1077.8 107.6 C 1075.3 104.4, 1071.3 94.5, 1072.1 92.2 C 1073.0 89.8, 1083.1 86.0, 1085.8 84.4 C 1088.6 82.9, 1095.6 78.1, 1098.9 77.2 C 1102.2 76.3, 1114.3 76.2, 1117.8 75.8 C 1121.4 75.4, 1130.3 74.3, 1132.9 73.1 C 1135.5 71.9, 1141.1 67.2, 1142.8 64.5 C 1144.6 61.9, 1148.1 50.9, 1150.0 47.2 C 1152.0 43.5, 1158.8 33.4, 1161.6 29.0 C 1164.5 24.7, 1173.4 8.2, 1177.3 5.0 C 1181.3 1.9, 1195.1 0.2, 1200.0 -1.1 C 1204.9 -2.4, 1219.7 -7.4, 1224.6 -7.4 C 1229.6 -7.4, 1243.4 -2.9, 1247.9 -1.0 C 1252.3 0.8, 1263.9 8.1, 1267.8 10.5 C 1271.8 12.8, 1281.9 19.8, 1286.0 21.4 C 1290.1 23.1, 1302.6 25.9, 1307.8 26.4 C 1313.0 27.0, 1331.1 25.9, 1336.4 26.9 C 1341.6 27.8, 1354.1 33.7, 1358.8 35.7 C 1363.5 37.6, 1378.0 43.0, 1381.7 45.7 C 1385.4 48.4, 1393.0 58.3, 1394.6 62.0 C 1396.2 65.7, 1398.3 77.3, 1397.1 81.7 C 1395.8 86.0, 1385.7 99.8, 1382.5 104.0 C 1379.3 108.3, 1369.6 119.2, 1366.3 122.7 C 1363.1 126.1, 1353.4 134.9, 1351.1 137.7 C 1348.9 140.6, 1344.9 147.5, 1344.5 150.0 Z" fill="url(#riftLand)" stroke="rgba(200,170,255,0.55)" stroke-width="2"/><path d="M 1344.5 150.0 C 1344.2 152.5, 1347.7 159.5, 1347.7 162.0 C 1347.7 164.4, 1345.8 171.5, 1344.6 173.8 C 1343.3 176.1, 1337.3 182.0, 1335.7 184.2 C 1334.0 186.3, 1331.1 192.9, 1328.4 194.5 C 1325.7 196.1, 1312.0 198.0, 1309.3 199.5 C 1306.7 201.0, 1304.1 207.0, 1302.5 208.9 C 1300.9 210.7, 1295.9 215.9, 1294.0 217.6 C 1292.0 219.4, 1285.9 223.9, 1283.9 225.7 C 1281.9 227.5, 1276.3 233.0, 1274.5 235.4 C 1272.7 237.8, 1268.2 246.1, 1266.1 248.8 C 1264.0 251.5, 1257.0 259.2, 1254.1 261.3 C 1251.2 263.5, 1241.3 267.4, 1237.9 269.5 C 1234.4 271.5, 1224.4 279.0, 1220.5 281.1 C 1216.6 283.1, 1204.3 289.4, 1200.0 289.5 C 1195.7 289.6, 1183.6 283.2, 1179.3 282.1 C 1175.1 281.1, 1162.7 281.0, 1158.9 279.6 C 1155.1 278.2, 1145.8 270.5, 1142.5 268.4 C 1139.1 266.3, 1129.2 262.2, 1126.7 259.7 C 1124.1 257.1, 1119.9 246.8, 1118.0 243.9 C 1116.2 241.1, 1110.9 234.4, 1109.1 232.1 C 1107.2 229.8, 1102.7 223.6, 1100.0 222.0 C 1097.4 220.4, 1086.7 218.2, 1083.7 216.8 C 1080.7 215.4, 1073.0 210.4, 1071.2 208.3 C 1069.4 206.2, 1067.0 198.9, 1066.3 196.4 C 1065.6 193.9, 1063.0 186.9, 1064.4 184.2 C 1065.9 181.4, 1077.3 172.3, 1080.6 169.6 C 1083.9 167.0, 1093.4 160.5, 1096.0 158.4 C 1098.7 156.4, 1104.3 151.6, 1106.3 150.0 C 1108.3 148.4, 1114.9 144.7, 1115.2 143.1 C 1115.5 141.6, 1110.9 137.0, 1108.9 135.0 C 1106.9 133.0, 1099.0 126.6, 1095.8 123.7 C 1092.5 120.9, 1080.2 110.9, 1077.8 107.6 C 1075.3 104.4, 1071.3 94.5, 1072.1 92.2 C 1073.0 89.8, 1083.1 86.0, 1085.8 84.4 C 1088.6 82.9, 1095.6 78.1, 1098.9 77.2 C 1102.2 76.3, 1114.3 76.2, 1117.8 75.8 C 1121.4 75.4, 1130.3 74.3, 1132.9 73.1 C 1135.5 71.9, 1141.1 67.2, 1142.8 64.5 C 1144.6 61.9, 1148.1 50.9, 1150.0 47.2 C 1152.0 43.5, 1158.8 33.4, 1161.6 29.0 C 1164.5 24.7, 1173.4 8.2, 1177.3 5.0 C 1181.3 1.9, 1195.1 0.2, 1200.0 -1.1 C 1204.9 -2.4, 1219.7 -7.4, 1224.6 -7.4 C 1229.6 -7.4, 1243.4 -2.9, 1247.9 -1.0 C 1252.3 0.8, 1263.9 8.1, 1267.8 10.5 C 1271.8 12.8, 1281.9 19.8, 1286.0 21.4 C 1290.1 23.1, 1302.6 25.9, 1307.8 26.4 C 1313.0 27.0, 1331.1 25.9, 1336.4 26.9 C 1341.6 27.8, 1354.1 33.7, 1358.8 35.7 C 1363.5 37.6, 1378.0 43.0, 1381.7 45.7 C 1385.4 48.4, 1393.0 58.3, 1394.6 62.0 C 1396.2 65.7, 1398.3 77.3, 1397.1 81.7 C 1395.8 86.0, 1385.7 99.8, 1382.5 104.0 C 1379.3 108.3, 1369.6 119.2, 1366.3 122.7 C 1363.1 126.1, 1353.4 134.9, 1351.1 137.7 C 1348.9 140.6, 1344.9 147.5, 1344.5 150.0 Z" fill="none" stroke="rgba(255,255,255,0.06)" stroke-width="5"/><path d="M 1344.5 150.0 C 1344.2 152.5, 1347.7 159.5, 1347.7 162.0 C 1347.7 164.4, 1345.8 171.5, 1344.6 173.8 C 1343.3 176.1, 1337.3 182.0, 1335.7 184.2 C 1334.0 186.3, 1331.1 192.9, 1328.4 194.5 C 1325.7 196.1, 1312.0 198.0, 1309.3 199.5 C 1306.7 201.0, 1304.1 207.0, 1302.5 208.9 C 1300.9 210.7, 1295.9 215.9, 1294.0 217.6 C 1292.0 219.4, 1285.9 223.9, 1283.9 225.7 C 1281.9 227.5, 1276.3 233.0, 1274.5 235.4 C 1272.7 237.8, 1268.2 246.1, 1266.1 248.8 C 1264.0 251.5, 1257.0 259.2, 1254.1 261.3 C 1251.2 263.5, 1241.3 267.4, 1237.9 269.5 C 1234.4 271.5, 1224.4 279.0, 1220.5 281.1 C 1216.6 283.1, 1204.3 289.4, 1200.0 289.5 C 1195.7 289.6, 1183.6 283.2, 1179.3 282.1 C 1175.1 281.1, 1162.7 281.0, 1158.9 279.6 C 1155.1 278.2, 1145.8 270.5, 1142.5 268.4 C 1139.1 266.3, 1129.2 262.2, 1126.7 259.7 C 1124.1 257.1, 1119.9 246.8, 1118.0 243.9 C 1116.2 241.1, 1110.9 234.4, 1109.1 232.1 C 1107.2 229.8, 1102.7 223.6, 1100.0 222.0 C 1097.4 220.4, 1086.7 218.2, 1083.7 216.8 C 1080.7 215.4, 1073.0 210.4, 1071.2 208.3 C 1069.4 206.2, 1067.0 198.9, 1066.3 196.4 C 1065.6 193.9, 1063.0 186.9, 1064.4 184.2 C 1065.9 181.4, 1077.3 172.3, 1080.6 169.6 C 1083.9 167.0, 1093.4 160.5, 1096.0 158.4 C 1098.7 156.4, 1104.3 151.6, 1106.3 150.0 C 1108.3 148.4, 1114.9 144.7, 1115.2 143.1 C 1115.5 141.6, 1110.9 137.0, 1108.9 135.0 C 1106.9 133.0, 1099.0 126.6, 1095.8 123.7 C 1092.5 120.9, 1080.2 110.9, 1077.8 107.6 C 1075.3 104.4, 1071.3 94.5, 1072.1 92.2 C 1073.0 89.8, 1083.1 86.0, 1085.8 84.4 C 1088.6 82.9, 1095.6 78.1, 1098.9 77.2 C 1102.2 76.3, 1114.3 76.2, 1117.8 75.8 C 1121.4 75.4, 1130.3 74.3, 1132.9 73.1 C 1135.5 71.9, 1141.1 67.2, 1142.8 64.5 C 1144.6 61.9, 1148.1 50.9, 1150.0 47.2 C 1152.0 43.5, 1158.8 33.4, 1161.6 29.0 C 1164.5 24.7, 1173.4 8.2, 1177.3 5.0 C 1181.3 1.9, 1195.1 0.2, 1200.0 -1.1 C 1204.9 -2.4, 1219.7 -7.4, 1224.6 -7.4 C 1229.6 -7.4, 1243.4 -2.9, 1247.9 -1.0 C 1252.3 0.8, 1263.9 8.1, 1267.8 10.5 C 1271.8 12.8, 1281.9 19.8, 1286.0 21.4 C 1290.1 23.1, 1302.6 25.9, 1307.8 26.4 C 1313.0 27.0, 1331.1 25.9, 1336.4 26.9 C 1341.6 27.8, 1354.1 33.7, 1358.8 35.7 C 1363.5 37.6, 1378.0 43.0, 1381.7 45.7 C 1385.4 48.4, 1393.0 58.3, 1394.6 62.0 C 1396.2 65.7, 1398.3 77.3, 1397.1 81.7 C 1395.8 86.0, 1385.7 99.8, 1382.5 104.0 C 1379.3 108.3, 1369.6 119.2, 1366.3 122.7 C 1363.1 126.1, 1353.4 134.9, 1351.1 137.7 C 1348.9 140.6, 1344.9 147.5, 1344.5 150.0 Z" fill="none" stroke="rgba(200,170,255,0.16)" stroke-width="9" filter="url(#softGlow)"/>
<g transform="translate(512.6,183.5) scale(0.6)"><path d="M0 -22 L11 10 L4 10 L4 4 L-4 4 L-4 10 L-11 10 Z" fill="rgba(120,112,128,0.5)" stroke="rgba(60,54,68,0.5)" stroke-width="0.8"/><path d="M-4 4 L-11 10 L11 10 L4 4 Z" fill="rgba(90,84,98,0.35)"/><path d="M0 -22 L4.6 -8.5 L0 -5.5 L-4.6 -8.5 Z" fill="rgba(235,232,242,0.7)"/></g><g transform="translate(523.1,202.7) scale(0.5)"><path d="M0 -22 L11 10 L4 10 L4 4 L-4 4 L-4 10 L-11 10 Z" fill="rgba(120,112,128,0.5)" stroke="rgba(60,54,68,0.5)" stroke-width="0.8"/><path d="M-4 4 L-11 10 L11 10 L4 4 Z" fill="rgba(90,84,98,0.35)"/><path d="M0 -22 L4.6 -8.5 L0 -5.5 L-4.6 -8.5 Z" fill="rgba(235,232,242,0.7)"/></g><g transform="translate(536.4,218.6) scale(0.4)"><path d="M0 -22 L11 10 L4 10 L4 4 L-4 4 L-4 10 L-11 10 Z" fill="rgba(120,112,128,0.5)" stroke="rgba(60,54,68,0.5)" stroke-width="0.8"/><path d="M-4 4 L-11 10 L11 10 L4 4 Z" fill="rgba(90,84,98,0.35)"/></g><g transform="translate(554.4,231.1) scale(0.4)"><path d="M0 -22 L11 10 L4 10 L4 4 L-4 4 L-4 10 L-11 10 Z" fill="rgba(120,112,128,0.5)" stroke="rgba(60,54,68,0.5)" stroke-width="0.8"/><path d="M-4 4 L-11 10 L11 10 L4 4 Z" fill="rgba(90,84,98,0.35)"/></g><g transform="translate(567.8,253.3) scale(0.5)"><path d="M0 -22 L11 10 L4 10 L4 4 L-4 4 L-4 10 L-11 10 Z" fill="rgba(120,112,128,0.5)" stroke="rgba(60,54,68,0.5)" stroke-width="0.8"/><path d="M-4 4 L-11 10 L11 10 L4 4 Z" fill="rgba(90,84,98,0.35)"/></g><g transform="translate(578.9,267.8) scale(0.7)"><path d="M0 -22 L11 10 L4 10 L4 4 L-4 4 L-4 10 L-11 10 Z" fill="rgba(120,112,128,0.5)" stroke="rgba(60,54,68,0.5)" stroke-width="0.8"/><path d="M-4 4 L-11 10 L11 10 L4 4 Z" fill="rgba(90,84,98,0.35)"/><path d="M0 -22 L4.6 -8.5 L0 -5.5 L-4.6 -8.5 Z" fill="rgba(235,232,242,0.7)"/></g>
<g transform="translate(427.3,360.4) scale(0.6)"><path d="M0 -22 L11 10 L4 10 L4 4 L-4 4 L-4 10 L-11 10 Z" fill="rgba(120,112,128,0.5)" stroke="rgba(60,54,68,0.5)" stroke-width="0.8"/><path d="M-4 4 L-11 10 L11 10 L4 4 Z" fill="rgba(90,84,98,0.35)"/><path d="M0 -22 L4.6 -8.5 L0 -5.5 L-4.6 -8.5 Z" fill="rgba(235,232,242,0.7)"/></g><g transform="translate(409.5,332.3) scale(0.5)"><path d="M0 -22 L11 10 L4 10 L4 4 L-4 4 L-4 10 L-11 10 Z" fill="rgba(120,112,128,0.5)" stroke="rgba(60,54,68,0.5)" stroke-width="0.8"/><path d="M-4 4 L-11 10 L11 10 L4 4 Z" fill="rgba(90,84,98,0.35)"/><path d="M0 -22 L4.6 -8.5 L0 -5.5 L-4.6 -8.5 Z" fill="rgba(235,232,242,0.7)"/></g><g transform="translate(388.8,304.7) scale(0.6)"><path d="M0 -22 L11 10 L4 10 L4 4 L-4 4 L-4 10 L-11 10 Z" fill="rgba(120,112,128,0.5)" stroke="rgba(60,54,68,0.5)" stroke-width="0.8"/><path d="M-4 4 L-11 10 L11 10 L4 4 Z" fill="rgba(90,84,98,0.35)"/><path d="M0 -22 L4.6 -8.5 L0 -5.5 L-4.6 -8.5 Z" fill="rgba(235,232,242,0.7)"/></g><g transform="translate(360.1,274.7) scale(0.6)"><path d="M0 -22 L11 10 L4 10 L4 4 L-4 4 L-4 10 L-11 10 Z" fill="rgba(120,112,128,0.5)" stroke="rgba(60,54,68,0.5)" stroke-width="0.8"/><path d="M-4 4 L-11 10 L11 10 L4 4 Z" fill="rgba(90,84,98,0.35)"/><path d="M0 -22 L4.6 -8.5 L0 -5.5 L-4.6 -8.5 Z" fill="rgba(235,232,242,0.7)"/></g>
<g transform="translate(501.0,343.0) scale(0.4)"><path d="M0 -13 L5.4 -2 L2.4 -2 L7.6 8 L-7.6 8 L-2.4 -2 L-5.4 -2 Z" fill="rgba(72,110,72,0.5)" stroke="rgba(20,32,20,0.35)" stroke-width="0.5"/><rect x="-1.3" y="8" width="2.6" height="3.2" fill="rgba(70,52,38,0.55)"/></g><g transform="translate(528.9,329.4) scale(0.4)"><path d="M0 -13 L5.4 -2 L2.4 -2 L7.6 8 L-7.6 8 L-2.4 -2 L-5.4 -2 Z" fill="rgba(72,110,72,0.5)" stroke="rgba(20,32,20,0.35)" stroke-width="0.5"/><rect x="-1.3" y="8" width="2.6" height="3.2" fill="rgba(70,52,38,0.55)"/></g><g transform="translate(484.5,354.9) scale(0.5)"><path d="M0 -13 L5.4 -2 L2.4 -2 L7.6 8 L-7.6 8 L-2.4 -2 L-5.4 -2 Z" fill="rgba(58,92,58,0.5)" stroke="rgba(20,32,20,0.35)" stroke-width="0.5"/><rect x="-1.3" y="8" width="2.6" height="3.2" fill="rgba(70,52,38,0.55)"/></g><g transform="translate(485.6,353.6) scale(0.4)"><path d="M0 -13 L5.4 -2 L2.4 -2 L7.6 8 L-7.6 8 L-2.4 -2 L-5.4 -2 Z" fill="rgba(72,110,72,0.5)" stroke="rgba(20,32,20,0.35)" stroke-width="0.5"/><rect x="-1.3" y="8" width="2.6" height="3.2" fill="rgba(70,52,38,0.55)"/></g><g transform="translate(503.2,354.4) scale(0.5)"><path d="M0 -13 L5.4 -2 L2.4 -2 L7.6 8 L-7.6 8 L-2.4 -2 L-5.4 -2 Z" fill="rgba(72,110,72,0.5)" stroke="rgba(20,32,20,0.35)" stroke-width="0.5"/><rect x="-1.3" y="8" width="2.6" height="3.2" fill="rgba(70,52,38,0.55)"/></g><g transform="translate(485.8,349.5) scale(0.3)"><path d="M0 -13 L5.4 -2 L2.4 -2 L7.6 8 L-7.6 8 L-2.4 -2 L-5.4 -2 Z" fill="rgba(58,92,58,0.5)" stroke="rgba(20,32,20,0.35)" stroke-width="0.5"/><rect x="-1.3" y="8" width="2.6" height="3.2" fill="rgba(70,52,38,0.55)"/></g><g transform="translate(540.4,358.3) scale(0.4)"><path d="M0 -13 L5.4 -2 L2.4 -2 L7.6 8 L-7.6 8 L-2.4 -2 L-5.4 -2 Z" fill="rgba(72,110,72,0.5)" stroke="rgba(20,32,20,0.35)" stroke-width="0.5"/><rect x="-1.3" y="8" width="2.6" height="3.2" fill="rgba(70,52,38,0.55)"/></g><g transform="translate(532.7,329.4) scale(0.4)"><path d="M0 -13 L5.4 -2 L2.4 -2 L7.6 8 L-7.6 8 L-2.4 -2 L-5.4 -2 Z" fill="rgba(46,76,50,0.5)" stroke="rgba(20,32,20,0.35)" stroke-width="0.5"/><rect x="-1.3" y="8" width="2.6" height="3.2" fill="rgba(70,52,38,0.55)"/></g><g transform="translate(497.9,359.8) scale(0.5)"><path d="M0 -13 L5.4 -2 L2.4 -2 L7.6 8 L-7.6 8 L-2.4 -2 L-5.4 -2 Z" fill="rgba(72,110,72,0.5)" stroke="rgba(20,32,20,0.35)" stroke-width="0.5"/><rect x="-1.3" y="8" width="2.6" height="3.2" fill="rgba(70,52,38,0.55)"/></g><g transform="translate(504.5,335.6) scale(0.5)"><path d="M0 -13 L5.4 -2 L2.4 -2 L7.6 8 L-7.6 8 L-2.4 -2 L-5.4 -2 Z" fill="rgba(72,110,72,0.5)" stroke="rgba(20,32,20,0.35)" stroke-width="0.5"/><rect x="-1.3" y="8" width="2.6" height="3.2" fill="rgba(70,52,38,0.55)"/></g>
<g transform="translate(424.4,231.1) scale(0.5)"><path d="M0 -13 L5.4 -2 L2.4 -2 L7.6 8 L-7.6 8 L-2.4 -2 L-5.4 -2 Z" fill="rgba(72,110,72,0.5)" stroke="rgba(20,32,20,0.35)" stroke-width="0.5"/><rect x="-1.3" y="8" width="2.6" height="3.2" fill="rgba(70,52,38,0.55)"/></g><g transform="translate(422.3,218.2) scale(0.5)"><path d="M0 -13 L5.4 -2 L2.4 -2 L7.6 8 L-7.6 8 L-2.4 -2 L-5.4 -2 Z" fill="rgba(46,76,50,0.5)" stroke="rgba(20,32,20,0.35)" stroke-width="0.5"/><rect x="-1.3" y="8" width="2.6" height="3.2" fill="rgba(70,52,38,0.55)"/></g><g transform="translate(407.3,222.0) scale(0.5)"><path d="M0 -13 L5.4 -2 L2.4 -2 L7.6 8 L-7.6 8 L-2.4 -2 L-5.4 -2 Z" fill="rgba(58,92,58,0.5)" stroke="rgba(20,32,20,0.35)" stroke-width="0.5"/><rect x="-1.3" y="8" width="2.6" height="3.2" fill="rgba(70,52,38,0.55)"/></g><g transform="translate(437.0,225.5) scale(0.5)"><path d="M0 -13 L5.4 -2 L2.4 -2 L7.6 8 L-7.6 8 L-2.4 -2 L-5.4 -2 Z" fill="rgba(72,110,72,0.5)" stroke="rgba(20,32,20,0.35)" stroke-width="0.5"/><rect x="-1.3" y="8" width="2.6" height="3.2" fill="rgba(70,52,38,0.55)"/></g><g transform="translate(404.0,237.6) scale(0.5)"><path d="M0 -13 L5.4 -2 L2.4 -2 L7.6 8 L-7.6 8 L-2.4 -2 L-5.4 -2 Z" fill="rgba(58,92,58,0.5)" stroke="rgba(20,32,20,0.35)" stroke-width="0.5"/><rect x="-1.3" y="8" width="2.6" height="3.2" fill="rgba(70,52,38,0.55)"/></g><g transform="translate(407.9,246.2) scale(0.5)"><path d="M0 -13 L5.4 -2 L2.4 -2 L7.6 8 L-7.6 8 L-2.4 -2 L-5.4 -2 Z" fill="rgba(72,110,72,0.5)" stroke="rgba(20,32,20,0.35)" stroke-width="0.5"/><rect x="-1.3" y="8" width="2.6" height="3.2" fill="rgba(70,52,38,0.55)"/></g><g transform="translate(421.6,239.3) scale(0.4)"><path d="M0 -13 L5.4 -2 L2.4 -2 L7.6 8 L-7.6 8 L-2.4 -2 L-5.4 -2 Z" fill="rgba(72,110,72,0.5)" stroke="rgba(20,32,20,0.35)" stroke-width="0.5"/><rect x="-1.3" y="8" width="2.6" height="3.2" fill="rgba(70,52,38,0.55)"/></g>
<path d="M 540.4 231.4 C 548.9 226.9, 532.2 239.5, 528.4 242.4 C 524.5 245.3, 520.3 250.5, 514.8 250.8 C 509.3 251.0, 497.5 243.7, 492.0 243.9 C 486.5 244.1, 481.3 247.9, 478.3 252.2 C 475.3 256.5, 462.7 275.8, 472.1 272.7 " fill="none" stroke="rgba(120,170,210,0.5)" stroke-width="2.2" stroke-linecap="round"/><path d="M 540.4 231.4 C 548.9 226.9, 532.2 239.5, 528.4 242.4 C 524.5 245.3, 520.3 250.5, 514.8 250.8 C 509.3 251.0, 497.5 243.7, 492.0 243.9 C 486.5 244.1, 481.3 247.9, 478.3 252.2 C 475.3 256.5, 462.7 275.8, 472.1 272.7 " fill="none" stroke="rgba(160,200,230,0.28)" stroke-width="4.6" stroke-linecap="round" filter="url(#softGlow)"/>
<g transform="translate(1127.7,450.2) scale(0.7)"><path d="M0 -22 L11 10 L4 10 L4 4 L-4 4 L-4 10 L-11 10 Z" fill="rgba(120,112,128,0.5)" stroke="rgba(60,54,68,0.5)" stroke-width="0.8"/><path d="M-4 4 L-11 10 L11 10 L4 4 Z" fill="rgba(90,84,98,0.35)"/><path d="M0 -22 L4.6 -8.5 L0 -5.5 L-4.6 -8.5 Z" fill="rgba(235,232,242,0.7)"/></g><g transform="translate(1120.5,473.9) scale(0.5)"><path d="M0 -22 L11 10 L4 10 L4 4 L-4 4 L-4 10 L-11 10 Z" fill="rgba(120,112,128,0.5)" stroke="rgba(60,54,68,0.5)" stroke-width="0.8"/><path d="M-4 4 L-11 10 L11 10 L4 4 Z" fill="rgba(90,84,98,0.35)"/></g><g transform="translate(1115.9,495.9) scale(0.5)"><path d="M0 -22 L11 10 L4 10 L4 4 L-4 4 L-4 10 L-11 10 Z" fill="rgba(120,112,128,0.5)" stroke="rgba(60,54,68,0.5)" stroke-width="0.8"/><path d="M-4 4 L-11 10 L11 10 L4 4 Z" fill="rgba(90,84,98,0.35)"/></g><g transform="translate(1111.2,511.1) scale(0.6)"><path d="M0 -22 L11 10 L4 10 L4 4 L-4 4 L-4 10 L-11 10 Z" fill="rgba(120,112,128,0.5)" stroke="rgba(60,54,68,0.5)" stroke-width="0.8"/><path d="M-4 4 L-11 10 L11 10 L4 4 Z" fill="rgba(90,84,98,0.35)"/><path d="M0 -22 L4.6 -8.5 L0 -5.5 L-4.6 -8.5 Z" fill="rgba(235,232,242,0.7)"/></g><g transform="translate(1100.7,532.3) scale(0.5)"><path d="M0 -22 L11 10 L4 10 L4 4 L-4 4 L-4 10 L-11 10 Z" fill="rgba(120,112,128,0.5)" stroke="rgba(60,54,68,0.5)" stroke-width="0.8"/><path d="M-4 4 L-11 10 L11 10 L4 4 Z" fill="rgba(90,84,98,0.35)"/></g>
<g transform="translate(947.2,479.4) scale(0.5)"><path d="M0 -13 L5.4 -2 L2.4 -2 L7.6 8 L-7.6 8 L-2.4 -2 L-5.4 -2 Z" fill="rgba(46,76,50,0.5)" stroke="rgba(20,32,20,0.35)" stroke-width="0.5"/><rect x="-1.3" y="8" width="2.6" height="3.2" fill="rgba(70,52,38,0.55)"/></g><g transform="translate(928.1,486.6) scale(0.5)"><path d="M0 -13 L5.4 -2 L2.4 -2 L7.6 8 L-7.6 8 L-2.4 -2 L-5.4 -2 Z" fill="rgba(72,110,72,0.5)" stroke="rgba(20,32,20,0.35)" stroke-width="0.5"/><rect x="-1.3" y="8" width="2.6" height="3.2" fill="rgba(70,52,38,0.55)"/></g><g transform="translate(932.8,475.9) scale(0.4)"><path d="M0 -13 L5.4 -2 L2.4 -2 L7.6 8 L-7.6 8 L-2.4 -2 L-5.4 -2 Z" fill="rgba(72,110,72,0.5)" stroke="rgba(20,32,20,0.35)" stroke-width="0.5"/><rect x="-1.3" y="8" width="2.6" height="3.2" fill="rgba(70,52,38,0.55)"/></g><g transform="translate(933.0,477.7) scale(0.5)"><path d="M0 -13 L5.4 -2 L2.4 -2 L7.6 8 L-7.6 8 L-2.4 -2 L-5.4 -2 Z" fill="rgba(58,92,58,0.5)" stroke="rgba(20,32,20,0.35)" stroke-width="0.5"/><rect x="-1.3" y="8" width="2.6" height="3.2" fill="rgba(70,52,38,0.55)"/></g><g transform="translate(936.9,504.8) scale(0.3)"><path d="M0 -13 L5.4 -2 L2.4 -2 L7.6 8 L-7.6 8 L-2.4 -2 L-5.4 -2 Z" fill="rgba(72,110,72,0.5)" stroke="rgba(20,32,20,0.35)" stroke-width="0.5"/><rect x="-1.3" y="8" width="2.6" height="3.2" fill="rgba(70,52,38,0.55)"/></g><g transform="translate(954.1,478.9) scale(0.5)"><path d="M0 -13 L5.4 -2 L2.4 -2 L7.6 8 L-7.6 8 L-2.4 -2 L-5.4 -2 Z" fill="rgba(58,92,58,0.5)" stroke="rgba(20,32,20,0.35)" stroke-width="0.5"/><rect x="-1.3" y="8" width="2.6" height="3.2" fill="rgba(70,52,38,0.55)"/></g><g transform="translate(939.1,472.6) scale(0.4)"><path d="M0 -13 L5.4 -2 L2.4 -2 L7.6 8 L-7.6 8 L-2.4 -2 L-5.4 -2 Z" fill="rgba(72,110,72,0.5)" stroke="rgba(20,32,20,0.35)" stroke-width="0.5"/><rect x="-1.3" y="8" width="2.6" height="3.2" fill="rgba(70,52,38,0.55)"/></g><g transform="translate(950.4,494.5) scale(0.5)"><path d="M0 -13 L5.4 -2 L2.4 -2 L7.6 8 L-7.6 8 L-2.4 -2 L-5.4 -2 Z" fill="rgba(72,110,72,0.5)" stroke="rgba(20,32,20,0.35)" stroke-width="0.5"/><rect x="-1.3" y="8" width="2.6" height="3.2" fill="rgba(70,52,38,0.55)"/></g>
<g transform="translate(1072.4,447.4) scale(0.3)"><path d="M0 -13 L5.4 -2 L2.4 -2 L7.6 8 L-7.6 8 L-2.4 -2 L-5.4 -2 Z" fill="rgba(72,110,72,0.5)" stroke="rgba(20,32,20,0.35)" stroke-width="0.5"/><rect x="-1.3" y="8" width="2.6" height="3.2" fill="rgba(70,52,38,0.55)"/></g><g transform="translate(1084.3,431.8) scale(0.3)"><path d="M0 -13 L5.4 -2 L2.4 -2 L7.6 8 L-7.6 8 L-2.4 -2 L-5.4 -2 Z" fill="rgba(72,110,72,0.5)" stroke="rgba(20,32,20,0.35)" stroke-width="0.5"/><rect x="-1.3" y="8" width="2.6" height="3.2" fill="rgba(70,52,38,0.55)"/></g><g transform="translate(1090.6,457.6) scale(0.5)"><path d="M0 -13 L5.4 -2 L2.4 -2 L7.6 8 L-7.6 8 L-2.4 -2 L-5.4 -2 Z" fill="rgba(46,76,50,0.5)" stroke="rgba(20,32,20,0.35)" stroke-width="0.5"/><rect x="-1.3" y="8" width="2.6" height="3.2" fill="rgba(70,52,38,0.55)"/></g><g transform="translate(1101.0,439.7) scale(0.4)"><path d="M0 -13 L5.4 -2 L2.4 -2 L7.6 8 L-7.6 8 L-2.4 -2 L-5.4 -2 Z" fill="rgba(46,76,50,0.5)" stroke="rgba(20,32,20,0.35)" stroke-width="0.5"/><rect x="-1.3" y="8" width="2.6" height="3.2" fill="rgba(70,52,38,0.55)"/></g><g transform="translate(1088.2,428.4) scale(0.3)"><path d="M0 -13 L5.4 -2 L2.4 -2 L7.6 8 L-7.6 8 L-2.4 -2 L-5.4 -2 Z" fill="rgba(46,76,50,0.5)" stroke="rgba(20,32,20,0.35)" stroke-width="0.5"/><rect x="-1.3" y="8" width="2.6" height="3.2" fill="rgba(70,52,38,0.55)"/></g><g transform="translate(1089.4,451.1) scale(0.4)"><path d="M0 -13 L5.4 -2 L2.4 -2 L7.6 8 L-7.6 8 L-2.4 -2 L-5.4 -2 Z" fill="rgba(46,76,50,0.5)" stroke="rgba(20,32,20,0.35)" stroke-width="0.5"/><rect x="-1.3" y="8" width="2.6" height="3.2" fill="rgba(70,52,38,0.55)"/></g>
<path d="M 1125.6 495.1 C 1135.7 496.3, 1116.5 483.6, 1111.6 482.2 C 1106.7 480.9, 1098.6 485.3, 1093.3 485.9 C 1087.9 486.6, 1081.0 486.2, 1075.8 486.5 C 1070.5 486.7, 1062.8 489.6, 1058.1 487.7 C 1053.3 485.8, 1034.2 472.7, 1044.3 473.8 " fill="none" stroke="rgba(120,170,210,0.5)" stroke-width="2.2" stroke-linecap="round"/><path d="M 1125.6 495.1 C 1135.7 496.3, 1116.5 483.6, 1111.6 482.2 C 1106.7 480.9, 1098.6 485.3, 1093.3 485.9 C 1087.9 486.6, 1081.0 486.2, 1075.8 486.5 C 1070.5 486.7, 1062.8 489.6, 1058.1 487.7 C 1053.3 485.8, 1034.2 472.7, 1044.3 473.8 " fill="none" stroke="rgba(160,200,230,0.28)" stroke-width="4.6" stroke-linecap="round" filter="url(#softGlow)"/>
<g transform="translate(332.7,562.2) scale(0.7)"><path d="M0 -22 L11 10 L4 10 L4 4 L-4 4 L-4 10 L-11 10 Z" fill="rgba(120,112,128,0.5)" stroke="rgba(60,54,68,0.5)" stroke-width="0.8"/><path d="M-4 4 L-11 10 L11 10 L4 4 Z" fill="rgba(90,84,98,0.35)"/><path d="M0 -22 L4.6 -8.5 L0 -5.5 L-4.6 -8.5 Z" fill="rgba(235,232,242,0.7)"/></g><g transform="translate(361.6,556.8) scale(0.6)"><path d="M0 -22 L11 10 L4 10 L4 4 L-4 4 L-4 10 L-11 10 Z" fill="rgba(120,112,128,0.5)" stroke="rgba(60,54,68,0.5)" stroke-width="0.8"/><path d="M-4 4 L-11 10 L11 10 L4 4 Z" fill="rgba(90,84,98,0.35)"/><path d="M0 -22 L4.6 -8.5 L0 -5.5 L-4.6 -8.5 Z" fill="rgba(235,232,242,0.7)"/></g><g transform="translate(386.9,551.7) scale(0.6)"><path d="M0 -22 L11 10 L4 10 L4 4 L-4 4 L-4 10 L-11 10 Z" fill="rgba(120,112,128,0.5)" stroke="rgba(60,54,68,0.5)" stroke-width="0.8"/><path d="M-4 4 L-11 10 L11 10 L4 4 Z" fill="rgba(90,84,98,0.35)"/><path d="M0 -22 L4.6 -8.5 L0 -5.5 L-4.6 -8.5 Z" fill="rgba(235,232,242,0.7)"/></g><g transform="translate(422.9,543.3) scale(0.5)"><path d="M0 -22 L11 10 L4 10 L4 4 L-4 4 L-4 10 L-11 10 Z" fill="rgba(120,112,128,0.5)" stroke="rgba(60,54,68,0.5)" stroke-width="0.8"/><path d="M-4 4 L-11 10 L11 10 L4 4 Z" fill="rgba(90,84,98,0.35)"/><path d="M0 -22 L4.6 -8.5 L0 -5.5 L-4.6 -8.5 Z" fill="rgba(235,232,242,0.7)"/></g>
<g transform="translate(474.4,648.8) scale(0.3)"><path d="M0 -13 L5.4 -2 L2.4 -2 L7.6 8 L-7.6 8 L-2.4 -2 L-5.4 -2 Z" fill="rgba(58,92,58,0.5)" stroke="rgba(20,32,20,0.35)" stroke-width="0.5"/><rect x="-1.3" y="8" width="2.6" height="3.2" fill="rgba(70,52,38,0.55)"/></g><g transform="translate(463.7,635.7) scale(0.5)"><path d="M0 -13 L5.4 -2 L2.4 -2 L7.6 8 L-7.6 8 L-2.4 -2 L-5.4 -2 Z" fill="rgba(46,76,50,0.5)" stroke="rgba(20,32,20,0.35)" stroke-width="0.5"/><rect x="-1.3" y="8" width="2.6" height="3.2" fill="rgba(70,52,38,0.55)"/></g><g transform="translate(469.4,658.1) scale(0.4)"><path d="M0 -13 L5.4 -2 L2.4 -2 L7.6 8 L-7.6 8 L-2.4 -2 L-5.4 -2 Z" fill="rgba(58,92,58,0.5)" stroke="rgba(20,32,20,0.35)" stroke-width="0.5"/><rect x="-1.3" y="8" width="2.6" height="3.2" fill="rgba(70,52,38,0.55)"/></g><g transform="translate(466.0,643.1) scale(0.5)"><path d="M0 -13 L5.4 -2 L2.4 -2 L7.6 8 L-7.6 8 L-2.4 -2 L-5.4 -2 Z" fill="rgba(46,76,50,0.5)" stroke="rgba(20,32,20,0.35)" stroke-width="0.5"/><rect x="-1.3" y="8" width="2.6" height="3.2" fill="rgba(70,52,38,0.55)"/></g><g transform="translate(477.8,657.5) scale(0.4)"><path d="M0 -13 L5.4 -2 L2.4 -2 L7.6 8 L-7.6 8 L-2.4 -2 L-5.4 -2 Z" fill="rgba(46,76,50,0.5)" stroke="rgba(20,32,20,0.35)" stroke-width="0.5"/><rect x="-1.3" y="8" width="2.6" height="3.2" fill="rgba(70,52,38,0.55)"/></g><g transform="translate(449.0,666.5) scale(0.4)"><path d="M0 -13 L5.4 -2 L2.4 -2 L7.6 8 L-7.6 8 L-2.4 -2 L-5.4 -2 Z" fill="rgba(72,110,72,0.5)" stroke="rgba(20,32,20,0.35)" stroke-width="0.5"/><rect x="-1.3" y="8" width="2.6" height="3.2" fill="rgba(70,52,38,0.55)"/></g><g transform="translate(455.8,659.5) scale(0.4)"><path d="M0 -13 L5.4 -2 L2.4 -2 L7.6 8 L-7.6 8 L-2.4 -2 L-5.4 -2 Z" fill="rgba(72,110,72,0.5)" stroke="rgba(20,32,20,0.35)" stroke-width="0.5"/><rect x="-1.3" y="8" width="2.6" height="3.2" fill="rgba(70,52,38,0.55)"/></g><g transform="translate(465.7,651.8) scale(0.5)"><path d="M0 -13 L5.4 -2 L2.4 -2 L7.6 8 L-7.6 8 L-2.4 -2 L-5.4 -2 Z" fill="rgba(58,92,58,0.5)" stroke="rgba(20,32,20,0.35)" stroke-width="0.5"/><rect x="-1.3" y="8" width="2.6" height="3.2" fill="rgba(70,52,38,0.55)"/></g><g transform="translate(462.2,654.0) scale(0.3)"><path d="M0 -13 L5.4 -2 L2.4 -2 L7.6 8 L-7.6 8 L-2.4 -2 L-5.4 -2 Z" fill="rgba(72,110,72,0.5)" stroke="rgba(20,32,20,0.35)" stroke-width="0.5"/><rect x="-1.3" y="8" width="2.6" height="3.2" fill="rgba(70,52,38,0.55)"/></g>
<path d="M 374.8 548.0 C 373.9 541.5, 381.6 554.1, 381.4 557.5 C 381.2 560.9, 374.7 567.0, 373.7 570.6 C 372.6 574.2, 372.4 578.7, 374.6 581.5 C 376.8 584.4, 386.5 586.5, 388.4 589.3 C 390.4 592.2, 389.8 606.9, 387.7 600.7 " fill="none" stroke="rgba(120,170,210,0.5)" stroke-width="2.2" stroke-linecap="round"/><path d="M 374.8 548.0 C 373.9 541.5, 381.6 554.1, 381.4 557.5 C 381.2 560.9, 374.7 567.0, 373.7 570.6 C 372.6 574.2, 372.4 578.7, 374.6 581.5 C 376.8 584.4, 386.5 586.5, 388.4 589.3 C 390.4 592.2, 389.8 606.9, 387.7 600.7 " fill="none" stroke="rgba(160,200,230,0.28)" stroke-width="4.6" stroke-linecap="round" filter="url(#softGlow)"/>
<g transform="translate(1196.5,93.3) scale(0.5)"><path d="M0 -22 L11 10 L4 10 L4 4 L-4 4 L-4 10 L-11 10 Z" fill="rgba(120,112,128,0.5)" stroke="rgba(60,54,68,0.5)" stroke-width="0.8"/><path d="M-4 4 L-11 10 L11 10 L4 4 Z" fill="rgba(90,84,98,0.35)"/></g><g transform="translate(1226.0,115.9) scale(0.5)"><path d="M0 -22 L11 10 L4 10 L4 4 L-4 4 L-4 10 L-11 10 Z" fill="rgba(120,112,128,0.5)" stroke="rgba(60,54,68,0.5)" stroke-width="0.8"/><path d="M-4 4 L-11 10 L11 10 L4 4 Z" fill="rgba(90,84,98,0.35)"/></g><g transform="translate(1259.0,133.4) scale(0.6)"><path d="M0 -22 L11 10 L4 10 L4 4 L-4 4 L-4 10 L-11 10 Z" fill="rgba(120,112,128,0.5)" stroke="rgba(60,54,68,0.5)" stroke-width="0.8"/><path d="M-4 4 L-11 10 L11 10 L4 4 Z" fill="rgba(90,84,98,0.35)"/><path d="M0 -22 L4.6 -8.5 L0 -5.5 L-4.6 -8.5 Z" fill="rgba(235,232,242,0.7)"/></g>
<g transform="translate(1165.7,195.7) scale(0.5)"><path d="M0 -13 L5.4 -2 L2.4 -2 L7.6 8 L-7.6 8 L-2.4 -2 L-5.4 -2 Z" fill="rgba(46,76,50,0.5)" stroke="rgba(20,32,20,0.35)" stroke-width="0.5"/><rect x="-1.3" y="8" width="2.6" height="3.2" fill="rgba(70,52,38,0.55)"/></g><g transform="translate(1181.4,181.9) scale(0.4)"><path d="M0 -13 L5.4 -2 L2.4 -2 L7.6 8 L-7.6 8 L-2.4 -2 L-5.4 -2 Z" fill="rgba(58,92,58,0.5)" stroke="rgba(20,32,20,0.35)" stroke-width="0.5"/><rect x="-1.3" y="8" width="2.6" height="3.2" fill="rgba(70,52,38,0.55)"/></g><g transform="translate(1156.5,186.8) scale(0.5)"><path d="M0 -13 L5.4 -2 L2.4 -2 L7.6 8 L-7.6 8 L-2.4 -2 L-5.4 -2 Z" fill="rgba(46,76,50,0.5)" stroke="rgba(20,32,20,0.35)" stroke-width="0.5"/><rect x="-1.3" y="8" width="2.6" height="3.2" fill="rgba(70,52,38,0.55)"/></g><g transform="translate(1171.3,194.9) scale(0.3)"><path d="M0 -13 L5.4 -2 L2.4 -2 L7.6 8 L-7.6 8 L-2.4 -2 L-5.4 -2 Z" fill="rgba(46,76,50,0.5)" stroke="rgba(20,32,20,0.35)" stroke-width="0.5"/><rect x="-1.3" y="8" width="2.6" height="3.2" fill="rgba(70,52,38,0.55)"/></g><g transform="translate(1181.9,177.2) scale(0.4)"><path d="M0 -13 L5.4 -2 L2.4 -2 L7.6 8 L-7.6 8 L-2.4 -2 L-5.4 -2 Z" fill="rgba(72,110,72,0.5)" stroke="rgba(20,32,20,0.35)" stroke-width="0.5"/><rect x="-1.3" y="8" width="2.6" height="3.2" fill="rgba(70,52,38,0.55)"/></g>
<text x="563" y="110" text-anchor="middle" font-family="Georgia, serif" font-size="24" font-weight="700" letter-spacing="4.5" fill="rgba(240,235,252,0.85)" stroke="rgba(10,6,20,0.55)" stroke-width="0.6" filter="url(#softGlow)">AETHERIS</text>
<text x="1056" y="377" text-anchor="middle" font-family="Georgia, serif" font-size="24" font-weight="700" letter-spacing="4.5" fill="rgba(240,235,252,0.85)" stroke="rgba(10,6,20,0.55)" stroke-width="0.6" filter="url(#softGlow)">NOCTARA</text>
<text x="451" y="546" text-anchor="middle" font-family="Georgia, serif" font-size="24" font-weight="700" letter-spacing="4.5" fill="rgba(240,235,252,0.85)" stroke="rgba(10,6,20,0.55)" stroke-width="0.6" filter="url(#softGlow)">VALDRIS</text>
<text x="1239" y="68" text-anchor="middle" font-family="Georgia, serif" font-size="24" font-weight="700" letter-spacing="4.5" fill="rgba(240,235,252,0.85)" stroke="rgba(10,6,20,0.55)" stroke-width="0.6" filter="url(#softGlow)">ECLIPSE REACH</text>
<g transform="translate(72,72)" opacity="0.5">
    <circle cx="0" cy="0" r="38" fill="rgba(10,8,16,0.45)" stroke="rgba(167,139,250,0.55)" stroke-width="1.2"/>
    <circle cx="0" cy="0" r="2" fill="rgba(167,139,250,0.85)"/>
    <path d="M 0 -36 L 6.5 -6 L 0 0 L -6.5 -6 Z" fill="rgba(240,235,252,0.75)"/>
    <path d="M 0 36 L 6.5 6 L 0 0 L -6.5 6 Z" fill="rgba(167,139,250,0.4)"/>
    <path d="M -36 0 L -6 6.5 L 0 0 L -6 -6.5 Z" fill="rgba(167,139,250,0.32)"/>
    <path d="M 36 0 L 6 6.5 L 0 0 L 6 -6.5 Z" fill="rgba(167,139,250,0.32)"/>
    <text x="0" y="-46" text-anchor="middle" font-family="Georgia, serif" font-size="14" fill="rgba(240,235,252,0.65)">N</text>
  </g>
<g transform="translate(20,20) rotate(0)" opacity="0.55"><path d="M0 0 L 74 0 M0 0 L0 74 M14 0 Q 38 0 38 24 M0 14 Q 0 38 24 38" fill="none" stroke="rgba(167,139,250,0.55)" stroke-width="1.6"/><circle cx="10" cy="10" r="2.4" fill="rgba(167,139,250,0.6)"/></g>
<g transform="translate(1388,20) rotate(90)" opacity="0.55"><path d="M0 0 L 74 0 M0 0 L0 74 M14 0 Q 38 0 38 24 M0 14 Q 0 38 24 38" fill="none" stroke="rgba(167,139,250,0.55)" stroke-width="1.6"/><circle cx="10" cy="10" r="2.4" fill="rgba(167,139,250,0.6)"/></g>
<g transform="translate(1388,748) rotate(180)" opacity="0.55"><path d="M0 0 L 74 0 M0 0 L0 74 M14 0 Q 38 0 38 24 M0 14 Q 0 38 24 38" fill="none" stroke="rgba(167,139,250,0.55)" stroke-width="1.6"/><circle cx="10" cy="10" r="2.4" fill="rgba(167,139,250,0.6)"/></g>
<g transform="translate(20,748) rotate(270)" opacity="0.55"><path d="M0 0 L 74 0 M0 0 L0 74 M14 0 Q 38 0 38 24 M0 14 Q 0 38 24 38" fill="none" stroke="rgba(167,139,250,0.55)" stroke-width="1.6"/><circle cx="10" cy="10" r="2.4" fill="rgba(167,139,250,0.6)"/></g>
<rect x="7" y="7" width="1394" height="754" fill="none" stroke="rgba(167,139,250,0.32)" stroke-width="2"/>
<text x="704" y="744" text-anchor="middle" font-family="Georgia, serif" font-size="14" letter-spacing="5.5" fill="rgba(167,139,250,0.55)">THE KNOWN WORLD</text>
<rect x="0" y="0" width="1408" height="768" fill="url(#vignette)"/>
</svg>